<svg xmlns="http://www.w3.org/2000/svg" viewBox="-49 141 512 512"><g fill="#67cdd9"><path d="M-6.333 217.8h375.467a8.536 8.536 0 0 1 8.533 8.533V448.2H-14.867V226.333c0-4.71 3.823-8.533 8.534-8.533z"/><path d="M317.933 345.8h136.533v170.667H317.933z"/></g><path d="M266.733 576.2a8.536 8.536 0 0 0-8.533-8.533h-8.533v-51.2h42.667V499.4H-23.562a8.38 8.38 0 0 1-8.371-8.371V200.571a8.38 8.38 0 0 1 8.371-8.371h409.933a8.365 8.365 0 0 1 8.363 8.363v85.504H411.8v-85.504c-.017-14.037-11.401-25.412-25.438-25.429H-23.562c-14.046.016-25.421 11.391-25.438 25.437v290.458c.017 14.046 11.392 25.421 25.438 25.438h136.695v51.2H104.6a8.536 8.536 0 0 0-8.533 8.533v25.6H61.933v17.067h238.933V601.8h-34.133v-25.6zM130.2 516.467h102.4v51.2H130.2v-51.2zM113.133 601.8v-17.067h136.533V601.8H113.133z"/><path d="M-14.867 431.133h307.2V448.2h-307.2zm392.534-153.6v-51.2c0-9.429-7.637-17.067-17.067-17.067H2.2c-9.429 0-17.067 7.637-17.067 17.067V397H2.2V226.333h358.4v51.2h17.067z"/><path d="M53.4 260.467V243.4H27.8a8.536 8.536 0 0 0-8.533 8.533v25.6h17.067v-17.067H53.4zm384 42.666H335c-14.14 0-25.6 11.46-25.6 25.6V550.6c0 14.14 11.46 25.6 25.6 25.6h102.4c14.14 0 25.6-11.46 25.6-25.6V328.733c0-14.139-11.46-25.6-25.6-25.6zM335 320.2h102.4a8.536 8.536 0 0 1 8.533 8.533v8.533H326.467v-8.533A8.536 8.536 0 0 1 335 320.2zm110.933 34.133v153.6H326.467v-153.6h119.466zm-8.533 204.8H335a8.536 8.536 0 0 1-8.533-8.533V525h119.467v25.6c-.001 4.71-3.824 8.533-8.534 8.533z"/><path d="M377.667 533.533h17.067V550.6h-17.067zm0-119.466h17.067v17.067h-17.067zm34.133 0h17.067v17.067H411.8zm-68.267 0H360.6v17.067h-17.067z"/></svg>