<svg xmlns="http://www.w3.org/2000/svg" viewBox="-49 141 512 512"><path d="M249.667 308.713h202.664c0-71.623-48.592-132.446-114.439-151.133a155.848 155.848 0 0 0-42.601-5.911h-45.625v157.044z" fill="#f9eacd"/><path d="M452.333 308.713H47.001c0 86.371 70.668 157.04 157.04 157.04h91.252c86.373-.001 157.04-70.669 157.04-157.04z" fill="#f99a98"/><path d="M165.297 572.579c-7.823-9.515-19.686-15.577-32.964-15.577-23.563 0-42.667 19.101-42.667 42.665s19.104 42.669 42.667 42.669c23.566 0 42.667-19.105 42.667-42.669a42.477 42.477 0 0 0-9.703-27.088zm168.739 0a42.474 42.474 0 0 0-9.705 27.087c0 23.564 19.104 42.669 42.667 42.669 23.566 0 42.667-19.105 42.667-42.669s-19.101-42.665-42.667-42.665c-13.275-.001-25.138 6.063-32.962 15.578z" fill="#7ba9d6"/><g fill="#000003"><path d="M367.001 546.33c-12.716 0-24.403 4.479-33.579 11.938l-66.955-55.022 32.703-26.874c43.178-.984 83.733-18.368 114.574-49.207 31.762-31.762 49.255-73.831 49.255-118.452 0-44.625-17.492-86.692-49.255-118.456-31.762-31.763-73.828-49.255-118.452-49.255h-45.625c-5.892 0-10.667 4.778-10.667 10.667v146.377H56.595C51.64 273.73 30.09 255.377 4.334 255.377h-42.667c-5.89 0-10.667 4.776-10.667 10.667 0 5.889 4.777 10.667 10.667 10.667H4.334c17.645 0 32 14.355 32 32.002 0 44.621 17.492 86.688 49.255 118.452 30.841 30.839 71.398 48.223 114.573 49.207l32.703 26.874-66.952 55.019c-9.175-7.456-20.862-11.936-33.578-11.936C102.927 546.33 79 570.256 79 599.666c0 29.407 23.927 53.332 53.334 53.332 29.408 0 53.334-23.924 53.334-53.332 0-9.001-2.249-17.48-6.202-24.924l70.2-57.688 70.203 57.688a53.004 53.004 0 0 0-6.203 24.924c0 29.407 23.927 53.332 53.334 53.332 29.408 0 53.334-23.924 53.334-53.332.001-29.411-23.924-53.336-53.333-53.336zm-234.667 85.333c-17.645 0-32-14.353-32-31.997 0-17.647 14.355-32.002 32-32.002s32 14.355 32 32.002c0 17.645-14.355 31.997-32 31.997zm162.958-469.326c8.91 0 17.635.804 26.11 2.335l-25.819 44.223c-2.97 5.088-1.254 11.619 3.834 14.591a10.614 10.614 0 0 0 5.369 1.456c3.668 0 7.239-1.893 9.222-5.29l28.83-49.382c54.226 18.674 94.138 68.364 98.438 127.775h-149.76l66.878-36.465c5.174-2.822 7.08-9.301 4.259-14.471-2.82-5.174-9.3-7.078-14.472-4.26l-87.847 47.896V162.337h34.958zM58.053 319.38h383.222c-5.482 75.737-68.843 135.688-145.951 135.705H204.04c-77.123 0-140.507-59.956-145.987-135.705zm175.77 157.039h31.687l-15.844 13.019-15.843-13.019zm133.178 155.244c-17.645 0-32-14.353-32-31.997 0-17.647 14.355-32.002 32-32.002s32 14.355 32 32.002c0 17.645-14.355 31.997-32 31.997z"/><path d="M380.472 248.072c1.732 0 3.49-.422 5.116-1.314l.657-.361c5.167-2.831 7.061-9.315 4.23-14.48-2.83-5.169-9.314-7.063-14.48-4.23l-.658.361c-5.167 2.829-7.061 9.312-4.23 14.48a10.667 10.667 0 0 0 9.365 5.544zm-211.917 92.639H128.89c-5.892 0-10.667 4.776-10.667 10.667 0 5.89 4.776 10.667 10.667 10.667h39.665c5.89 0 10.667-4.777 10.667-10.667 0-5.893-4.776-10.667-10.667-10.667zm-70.308.004h-.254c-5.892 0-10.667 4.776-10.667 10.667 0 5.889 4.776 10.667 10.667 10.667h.254c5.891 0 10.667-4.778 10.667-10.667 0-5.892-4.775-10.667-10.667-10.667zm34.087 248.287c-5.873 0-10.667 4.785-10.667 10.663s4.794 10.669 10.667 10.669c5.875 0 10.665-4.792 10.665-10.669 0-5.878-4.789-10.663-10.665-10.663zm234.667 0c-5.873 0-10.665 4.785-10.665 10.663s4.792 10.669 10.665 10.669c5.875 0 10.667-4.792 10.667-10.669.001-5.878-4.792-10.663-10.667-10.663z"/></g></svg>