<svg xmlns="http://www.w3.org/2000/svg" viewBox="0 0 1461.146 1095.109"><path d="M762 419.91a8 8 0 0 0 0 16c4.414 0 8-3.586 8-8 0-4.418-3.586-8-8-8zm-64 0a8 8 0 0 0 0 16c4.414 0 8-3.586 8-8 0-4.418-3.586-8-8-8zm0 172.801a8 8 0 0 0 0 16c4.414 0 8-3.586 8-8 0-4.418-3.586-8-8-8zm0 0"/><path d="M849.351 469.238C877.492 462.273 898 436.632 898 407.109c0-35.289-28.711-64-64-64-15.766 0-31.02 5.902-42.703 16.348-18.586-10.703-39.633-16.348-61.297-16.348s-42.711 5.645-61.301 16.348c-11.68-10.442-26.934-16.348-42.699-16.348-35.289 0-64 28.711-64 64 0 29.543 20.535 55.203 48.648 62.133 2.867 25.863 15.149 50.156 34.629 68.789C610.64 556.644 586 600.382 586 640.711c0 13.824 2.867 27.121 8.519 39.574a70.816 70.816 0 0 0-.519 8.426c0 35.289 28.711 64 64 64 13.621 0 26.879-4.379 37.812-12.387 10.719 2.906 22.196 4.387 34.188 4.387 11.988 0 23.465-1.481 34.183-4.383A64.029 64.029 0 0 0 802 752.711c35.289 0 64-28.711 64-64 0-2.75-.18-5.579-.52-8.43 5.653-12.449 8.52-25.746 8.52-39.57 0-40.305-24.625-84.059-59.278-102.68 19.485-18.641 31.766-42.934 34.629-68.793zm-6.109-49.094c-3.652-9.84-8.77-19.285-15.117-27.914a15.96 15.96 0 0 1 5.875-1.121c8.82 0 16 7.176 16 16 0 5.285-2.641 10.098-6.758 13.035zM834 359.109c26.465 0 48 21.531 48 48 0 20.594-13.305 38.668-32.137 45.297a107.085 107.085 0 0 0-2.066-16.442c10.879-5.23 18.203-16.386 18.203-28.855 0-17.645-14.356-32-32-32-5.91 0-11.59 1.609-16.531 4.609a120.275 120.275 0 0 0-12.305-10.957c8.265-6.195 18.398-9.652 28.836-9.652zm-223.863 93.297C591.301 445.777 578 427.703 578 407.109c0-26.469 21.531-48 48-48 10.433 0 20.57 3.457 28.832 9.652a120.55 120.55 0 0 0-12.301 10.957A31.776 31.776 0 0 0 626 375.109c-17.645 0-32 14.355-32 32 0 12.469 7.324 23.625 18.203 28.859a106.848 106.848 0 0 0-2.066 16.438zM610 407.109c0-8.824 7.176-16 16-16 2.039 0 4.027.391 5.875 1.121-6.348 8.625-11.465 18.074-15.121 27.914-4.117-2.937-6.754-7.75-6.754-13.035zm-8 233.602c0-38.301 25.183-78.297 56.879-91.446 1.98 1.406 4 2.762 6.066 4.051-19.285 16.652-32.504 40.16-37.125 66.438-10.109 7.765-18.926 19.343-25.023 32.335a80.697 80.697 0 0 1-.797-11.378zm86.949 84.683A48.032 48.032 0 0 1 658 736.711c-26.469 0-48-21.536-48-48 0-26.586 22.101-64 48-64 25.976 0 48 37.285 48 64a47.926 47.926 0 0 1-17.051 36.683zM730 728.711c-7.149 0-14.063-.602-20.684-1.762A63.87 63.87 0 0 0 722 688.711c0-34.821-27.899-80-64-80-3.867 0-7.699.519-11.477 1.535 6.035-19.719 17.86-36.875 33.813-48.785 15.648 6.929 32.332 10.449 49.664 10.449s34.015-3.524 49.664-10.449c15.953 11.914 27.773 29.066 33.812 48.785A44.09 44.09 0 0 0 802 608.711c-36.121 0-64 45.203-64 80 0 6.148.871 12.234 2.597 18.085a63.576 63.576 0 0 0 10.079 20.153c-6.622 1.16-13.532 1.762-20.676 1.762zm72 8a47.986 47.986 0 0 1-30.949-11.313c-7.239-6.117-12.461-14.109-15.106-23.109v-.008a47.93 47.93 0 0 1-1.945-13.57c0-26.922 22.179-64 48-64 26.086 0 48 37.683 48 64 0 26.464-21.535 48-48 48zm56-96c0 3.847-.27 7.644-.797 11.382-6.098-12.996-14.918-24.574-25.027-32.339-4.618-26.278-17.836-49.786-37.125-66.438a120.904 120.904 0 0 0 6.066-4.051C832.812 562.414 858 602.41 858 640.711zM730 555.91c-55.36 0-100.324-42.071-103.781-92.188a7.998 7.998 0 0 0-.161-3.109C624.203 405.984 671.695 359.109 730 359.109c48.308 0 88.929 32.105 100.597 73.82 4.911 17.332 2.989 29.231 3.188 30.707-3.418 50.356-48.563 92.274-103.785 92.274zm0 0"/><path d="M762 507.91a8 8 0 0 0-8 8c0 4.41-3.59 8-8 8a7.942 7.942 0 0 1-5.656-2.344A7.958 7.958 0 0 1 738 515.91v-16.731c13.949-2.597 24-11.89 24-23.269 0-13.457-14.059-24-32-24-17.946 0-32 10.543-32 24 0 11.379 10.047 20.672 24 23.269v16.731c0 4.41-3.59 8-8 8a7.942 7.942 0 0 1-5.656-2.344A7.958 7.958 0 0 1 706 515.91a8 8 0 0 0-16 0c0 6.406 2.496 12.433 7.031 16.969 4.535 4.535 10.559 7.031 16.969 7.031 6.137 0 11.742-2.321 15.992-6.125 4.406 3.957 10.039 6.125 16.008 6.125 13.234 0 24-10.766 24-24a8 8 0 0 0-8-8zm-48-32c0-3.262 6.23-8 16-8 9.765 0 16 4.738 16 8 0 3.261-6.235 8-16 8-9.77 0-16-4.739-16-8zm88 164.801c-15.281 0-32 28.554-32 48 0 17.644 14.355 32 32 32 17.644 0 32-14.356 32-32 0-19.75-16.895-48-32-48zm0 64c-8.824 0-16-7.18-16-16 0-12.762 10.051-28.239 16.031-31.782 4.606 2.547 15.969 17.754 15.969 31.782 0 8.82-7.18 16-16 16zm-144-64c-15.27 0-32 28.496-32 48 0 17.644 14.355 32 32 32 17.644 0 32-14.356 32-32 0-19.75-16.895-48-32-48zm0 64c-8.824 0-16-7.18-16-16 0-14.059 11.414-29.301 16-31.801 4.586 2.5 16 17.742 16 31.801 0 8.82-7.18 16-16 16zm104-112h-32a8 8 0 0 0 0 16h32a8 8 0 0 0 0-16zm0 0"/></svg>