<svg xmlns="http://www.w3.org/2000/svg" viewBox="-49 141 512 512"><path d="M346.84 290.31c34-4.79 60.16-33.99 60.16-69.31 0-38.66-31.34-70-70-70-20.29 0-38.57 8.64-51.36 22.43l-.43.67C262.88 159.59 235.97 151 207 151s-55.88 8.59-78.21 23.1l-.43-.67C115.57 159.64 97.29 151 77 151c-38.66 0-70 31.34-70 70 0 35.32 26.16 64.52 60.16 69.31 1.98 38.64 22.04 73.71 52.48 97.1C72.12 403.6 37 461.7 37 513c0 17.17 3.93 33.41 10.95 47.89-.63 4.12-.95 8.18-.95 12.11 0 38.66 31.34 70 70 70 17.2 0 32.95-6.21 45.14-16.5 13.86 4.31 29 6.5 44.86 6.5s31-2.19 44.86-6.5C264.04 636.8 279.8 643 297 643c38.66 0 70-31.34 70-70 0-3.93-.32-7.99-.95-12.11C373.07 546.41 377 530.17 377 513c0-51.3-35.12-109.4-82.64-125.59 30.44-23.39 50.5-58.46 52.48-97.1z" fill="#fe9e59"/><g fill="#cc7940"><path d="M367 221c0 14.46-10.28 26.55-23.91 29.38l-.7.2h-.01c-5.19-18.55-14.59-35.67-27.18-50.3l.89-.77c5.4-5.26 12.78-8.51 20.91-8.51 16.54 0 30 13.46 30 30zm-41.49 271.46v.01C316.8 486.54 307.15 483 297 483c-38.66 0-70 51.34-70 90 0 6.87.99 13.51 2.84 19.79 3.91 13.32 11.69 24.98 22.02 33.71-13.86 4.31-29 6.5-44.86 6.5s-31-2.19-44.86-6.5C177.34 613.66 187 594.46 187 573c0-38.66-31.34-90-70-90-10.15 0-19.8 3.54-28.51 9.47v-.01c5.57-38.01 26.35-70.54 55.37-90.03C162.83 411.72 184.28 417 207 417s44.17-5.28 63.14-14.57c29.02 19.49 49.8 52.02 55.37 90.03z"/><path d="M327 573c0 16.54-13.46 30-30 30s-30-13.46-30-30c0-13.76 7.09-28.94 14.97-38.92C287.26 527.36 292.91 523 297 523c10.17 0 30 26.99 30 50z"/></g><path d="M207 287c16.57 0 30 8.95 30 20s-13.43 20-30 20-30-8.95-30-20 13.43-20 30-20z" fill="#fd7fa9"/><path d="M147 573c0 16.54-13.46 30-30 30s-30-13.46-30-30c0-23.01 19.83-50 30-50s30 26.99 30 50zM97.91 199.51l.89.77c-12.59 14.63-21.99 31.75-27.18 50.3h-.01l-.7-.2C57.28 247.55 47 235.46 47 221c0-16.54 13.46-30 30-30 8.13 0 15.51 3.25 20.91 8.51z" fill="#cc7940"/><path d="M247 237c-5.52 0-10 4.48-10 10s4.48 10 10 10 10-4.48 10-10-4.48-10-10-10zm-80 20c5.52 0 10-4.48 10-10s-4.48-10-10-10-10 4.48-10 10 4.48 10 10 10zm0 196c-5.52 0-10 4.48-10 10s4.48 10 10 10 10-4.48 10-10-4.48-10-10-10z"/><path d="M337 141c-19.707 0-38.772 7.38-53.376 20.436C260.392 148.057 234.08 141 207 141c-27.079 0-53.39 7.056-76.623 20.437C115.773 148.381 96.708 141 77 141c-44.112 0-80 35.888-80 80 0 36.931 25.671 69.004 60.813 77.667 3.584 32.329 18.932 62.692 43.285 85.986C57.801 407.919 27 462.593 27 513c0 17.28 3.584 33.905 10.65 49.468A88.7 88.7 0 0 0 37 573c0 44.112 35.888 80 80 80 17.026 0 33.601-5.473 47.266-15.48 13.4 3.632 27.746 5.48 42.734 5.48 14.987 0 29.331-1.848 42.73-5.479A80.027 80.027 0 0 0 297 653c44.112 0 80-35.888 80-80 0-3.435-.223-6.97-.65-10.533C383.416 546.905 387 530.28 387 513c0-50.377-30.78-105.07-74.098-128.347 24.36-23.302 39.709-53.67 43.288-85.994C391.365 289.956 417 257.903 417 221c0-44.112-35.888-80-80-80zM57.172 277.62C33.628 269.336 17 246.744 17 221c0-33.084 26.916-60 60-60 13.045 0 25.712 4.321 36.041 12.065a150.768 150.768 0 0 0-15.376 13.696A39.736 39.736 0 0 0 77 181c-22.056 0-40 17.944-40 40 0 15.584 9.155 29.529 22.753 36.072a133.603 133.603 0 0 0-2.581 20.548zM57 221c0-11.028 8.972-20 20-20a19.9 19.9 0 0 1 7.344 1.403c-7.936 10.782-14.33 22.589-18.9 34.89C60.298 233.62 57 227.608 57 221zM47 513c0-47.874 31.482-97.869 71.101-114.305 2.474 1.76 5 3.453 7.583 5.066-24.108 20.812-40.632 50.2-46.406 83.046-12.638 9.706-23.661 24.179-31.283 40.419A101.31 101.31 0 0 1 47 513zm108.689 105.858A60.05 60.05 0 0 1 117 633c-33.084 0-60-26.916-60-60 0-33.231 27.627-80 60-80 32.472 0 60 46.607 60 80 0 17.703-7.768 34.419-21.311 45.858zM207 623c-8.934 0-17.575-.748-25.853-2.201A79.84 79.84 0 0 0 197 573c0-43.521-34.87-100-80-100-4.832 0-9.621.65-14.347 1.921 7.548-24.65 22.326-46.092 42.268-60.983C164.483 422.6 185.334 427 207 427c21.667 0 42.52-4.401 62.08-13.061 19.942 14.891 34.72 36.332 42.268 60.982C306.621 473.65 301.832 473 297 473c-45.148 0-80 56.506-80 100a79.975 79.975 0 0 0 3.246 22.608 79.445 79.445 0 0 0 12.602 25.191C224.571 622.252 215.932 623 207 623zm90 10c-14.166 0-27.903-5.021-38.685-14.138-9.048-7.647-15.577-17.637-18.88-28.889A59.977 59.977 0 0 1 237 573c0-33.649 27.725-80 60-80 32.609 0 60 47.107 60 80 0 33.084-26.916 60-60 60zm70-120c0 4.81-.334 9.557-.995 14.23-7.624-16.245-18.647-30.719-31.283-40.423-5.774-32.846-22.298-62.234-46.406-83.046a151.242 151.242 0 0 0 7.583-5.066C335.519 415.132 367 465.126 367 513zm-30.269-221.34C332.458 354.604 276.029 407 207 407c-69.2 0-125.404-52.589-129.724-115.233a9.93 9.93 0 0 0-.204-3.886C74.755 219.592 134.122 161 207 161c60.386 0 111.162 40.132 125.75 92.274 6.136 21.668 3.734 36.538 3.981 38.386zm11.825-54.367c-4.569-12.3-10.964-24.107-18.9-34.89A19.904 19.904 0 0 1 337 201c11.028 0 20 8.972 20 20 0 6.608-3.298 12.62-8.444 16.293zm8.272 40.327a133.631 133.631 0 0 0-2.581-20.549C367.845 250.529 377 236.584 377 221c0-22.056-17.944-40-40-40a39.736 39.736 0 0 0-20.665 5.761 150.672 150.672 0 0 0-15.377-13.696C311.289 165.321 323.955 161 337 161c33.084 0 60 26.916 60 60 0 25.744-16.628 48.336-40.172 56.62z"/><path d="M247 347c-5.523 0-10 4.478-10 10 0 5.514-4.486 10-10 10a9.93 9.93 0 0 1-7.068-2.931A9.93 9.93 0 0 1 217 357v-20.91c17.438-3.25 30-14.867 30-29.09 0-16.822-17.57-30-40-30s-40 13.178-40 30c0 14.223 12.562 25.839 30 29.09V357c0 5.514-4.486 10-10 10a9.93 9.93 0 0 1-7.068-2.931A9.93 9.93 0 0 1 177 357c0-5.522-4.477-10-10-10s-10 4.478-10 10c0 8.01 3.121 15.542 8.789 21.211C171.457 383.879 178.99 387 187 387c7.673 0 14.68-2.899 19.99-7.655C212.5 384.292 219.542 387 227 387c16.542 0 30-13.458 30-30 0-5.522-4.477-10-10-10zm-60-40c0-4.077 7.791-10 20-10s20 5.923 20 10-7.791 10-20 10-20-5.923-20-10zm110 206c-19.103 0-40 35.693-40 60 0 22.056 17.944 40 40 40s40-17.944 40-40c0-24.685-21.118-60-40-60zm0 80c-11.028 0-20-8.972-20-20 0-15.95 12.563-35.296 20.038-39.726C302.795 536.46 317 555.468 317 573c0 11.028-8.972 20-20 20zm-180-80c-19.085 0-40 35.621-40 60 0 22.056 17.944 40 40 40s40-17.944 40-40c0-24.685-21.118-60-40-60zm0 80c-11.028 0-20-8.972-20-20 0-17.57 14.267-36.623 20-39.747 5.733 3.124 20 22.177 20 39.747 0 11.028-8.972 20-20 20zm140-130c0-5.522-4.477-10-10-10h-40c-5.523 0-10 4.478-10 10s4.477 10 10 10h40c5.523 0 10-4.478 10-10z"/></svg>