<svg xmlns="http://www.w3.org/2000/svg" viewBox="0 0 1461.1 1095.1"><path d="M857.8 667.4c-10.2 0-19.5 3.6-26.9 9.5l-53.6-44 26.2-21.5c34.5-.8 67-14.7 91.7-39.4 25.4-25.4 39.4-59.1 39.4-94.8 0-35.7-14-69.4-39.4-94.8S836.1 343 800.4 343h-36.5c-4.7 0-8.5 3.8-8.5 8.5v117.1H609.5c-4-19.5-21.2-34.1-41.8-34.1h-34.1c-4.7 0-8.5 3.8-8.5 8.5s3.8 8.5 8.5 8.5h34.1c14.1 0 25.6 11.5 25.6 25.6 0 35.7 14 69.3 39.4 94.8 24.7 24.7 57.1 38.6 91.7 39.4l26.2 21.5-53.6 44c-7.3-6-16.7-9.5-26.9-9.5-23.5 0-42.7 19.1-42.7 42.7 0 23.5 19.1 42.7 42.7 42.7 23.5 0 42.7-19.1 42.7-42.7 0-7.2-1.8-14-5-19.9L764 644l56.2 46.1c-3.2 6-5 12.7-5 19.9 0 23.5 19.1 42.7 42.7 42.7 23.5 0 42.7-19.1 42.7-42.7-.1-23.5-19.3-42.6-42.8-42.6zm-187.7 68.2c-14.1 0-25.6-11.5-25.6-25.6 0-14.1 11.5-25.6 25.6-25.6 14.1 0 25.6 11.5 25.6 25.6 0 14.2-11.5 25.6-25.6 25.6zm102.4-375.4h28c7.1 0 14.1.6 20.9 1.9l-20.7 35.4c-2.4 4.1-1 9.3 3.1 11.7 1.4.8 2.8 1.2 4.3 1.2 2.9 0 5.8-1.5 7.4-4.2l23.1-39.5c43.4 14.9 75.3 54.7 78.8 102.2h-120l53.5-29.2c4.1-2.3 5.7-7.4 3.4-11.6-2.3-4.1-7.4-5.7-11.6-3.4L772.4 463V360.2zm-45.1 234.2c-61.7 0-112.4-48-116.8-108.6h306.6c-4.4 60.6-55.1 108.6-116.8 108.6h-73zm36.5 27.5l-12.7-10.4h25.4l-12.7 10.4zm93.9 113.7c-14.1 0-25.6-11.5-25.6-25.6 0-14.1 11.5-25.6 25.6-25.6 14.1 0 25.6 11.5 25.6 25.6 0 14.2-11.5 25.6-25.6 25.6zm0 0"/><path d="M868.6 428.8c1.4 0 2.8-.3 4.1-1.1l.5-.3c4.1-2.3 5.6-7.4 3.4-11.6-2.3-4.1-7.4-5.7-11.6-3.4l-.5.3c-4.1 2.3-5.6 7.5-3.4 11.6 1.5 2.9 4.5 4.5 7.5 4.5zM699 502.9h-31.7c-4.7 0-8.5 3.8-8.5 8.5s3.8 8.5 8.5 8.5H699c4.7 0 8.5-3.8 8.5-8.5s-3.7-8.5-8.5-8.5zm-56.2 0h-.2c-4.7 0-8.5 3.8-8.5 8.5s3.8 8.5 8.5 8.5h.2c4.7 0 8.5-3.8 8.5-8.5s-3.8-8.5-8.5-8.5zm27.3 198.6c-4.7 0-8.5 3.8-8.5 8.5s3.8 8.5 8.5 8.5 8.5-3.8 8.5-8.5-3.8-8.5-8.5-8.5zm187.7 0c-4.7 0-8.5 3.8-8.5 8.5s3.8 8.5 8.5 8.5 8.5-3.8 8.5-8.5-3.8-8.5-8.5-8.5zm0 0"/></svg>