<svg xmlns="http://www.w3.org/2000/svg" xmlns:xlink="http://www.w3.org/1999/xlink" viewBox="0 0 1461.146 1095.109"><path d="M881.059 560.127c0 90.106-73.047 163.153-163.153 163.153-90.109 0-163.156-73.047-163.156-163.153 0-90.109 73.047-163.152 163.156-163.152 90.106 0 163.153 73.043 163.153 163.152zm0 0" fill="#e8594f"/><path d="M717.906 675.291c-63.504 0-115.168-51.664-115.168-115.168 0-63.5 51.664-115.164 115.168-115.164 63.5 0 115.164 51.664 115.164 115.164 0 63.504-51.664 115.168-115.164 115.168zm0 0" fill="#efefef"/><path d="M717.906 627.307c-37.047 0-67.183-30.141-67.183-67.184s30.136-67.179 67.183-67.179c37.043 0 67.18 30.136 67.18 67.179 0 37.043-30.137 67.184-67.18 67.184zm0 0" fill="#e8594f"/><defs><path id="a" d="M525 343.109h409.92v410.88H525z"/></defs><clipPath id="b"><use xlink:href="#a" overflow="visible"/></clipPath><path d="M926.922 391.826l-37.324-3.394-3.395-37.324-41.394 41.398 4.07 36.645 36.648 4.07 41.395-41.395zm0 0" clip-path="url(#b)" fill="#f4ad47"/><path d="M884.676 440.854a7.664 7.664 0 0 0 6.277-2.203l41.399-41.395a7.679 7.679 0 0 0-4.735-13.074l-30.953-2.816-2.816-30.954a7.682 7.682 0 0 0-5.032-6.523 7.679 7.679 0 0 0-8.043 1.793l-41.398 41.394a7.682 7.682 0 0 0-2.199 6.278l3.664 32.98-7.754 7.75c-28.629-26.187-66.18-42.769-107.504-44.605v-14.582a7.678 7.678 0 0 0-15.355 0v14.578c-88.102 3.918-159.055 74.871-162.973 162.973h-14.578a7.678 7.678 0 0 0 0 15.355h14.578c3.918 88.102 74.871 159.055 162.973 162.973v14.574a7.678 7.678 0 1 0 15.355 0v-14.574c88.098-3.918 159.055-74.871 162.973-162.973h14.574a7.678 7.678 0 0 0 0-15.355h-14.574c-1.836-41.325-18.418-78.875-44.61-107.508l7.754-7.75 32.977 3.664zm-4.633-72.727l1.91 21a7.678 7.678 0 0 0 6.949 6.953l21 1.907-27.195 27.199-26.875-2.988-2.988-26.872 27.199-27.199zm-6.855 184.321h-10.817a7.678 7.678 0 0 0 0 15.355h10.817c-3.891 79.633-67.973 143.715-147.606 147.606v-10.817a7.678 7.678 0 0 0-15.355 0v10.817c-79.633-3.891-143.715-67.973-147.606-147.606h10.817a7.677 7.677 0 0 0 7.675-7.68 7.676 7.676 0 0 0-7.675-7.675h-10.817c3.891-79.633 67.973-143.715 147.606-147.606v10.817a7.676 7.676 0 0 0 7.675 7.675 7.677 7.677 0 0 0 7.68-7.675v-10.817c37.094 1.813 70.809 16.684 96.645 40.102l-23.102 23.105c-21.668-19.137-50.109-30.769-81.223-30.769-67.734 0-122.843 55.109-122.843 122.843 0 67.739 55.109 122.848 122.843 122.848 67.739 0 122.844-55.109 122.844-122.848 0-31.109-11.629-59.55-30.766-81.218l23.106-23.102c23.418 25.832 38.289 59.551 40.102 96.645zm-160.711 13.105a7.645 7.645 0 0 0 5.425 2.25c1.969 0 3.934-.75 5.43-2.25l41.695-41.695c7.75 10.051 12.379 22.625 12.379 36.269 0 32.809-26.691 59.5-59.504 59.5-32.808 0-59.504-26.691-59.504-59.5 0-32.812 26.696-59.504 59.504-59.504 13.645 0 26.219 4.625 36.27 12.375l-41.699 41.7a7.675 7.675 0 0 0 .004 10.855zm52.625-63.48c-12.891-10.497-29.317-16.805-47.196-16.805-41.277 0-74.859 33.582-74.859 74.859 0 41.274 33.582 74.856 74.859 74.856 41.278 0 74.856-33.582 74.856-74.856 0-17.879-6.305-34.308-16.805-47.195l23.156-23.156c16.364 18.867 26.282 43.472 26.282 70.347 0 59.27-48.219 107.493-107.489 107.493-59.269 0-107.488-48.223-107.488-107.493 0-59.269 48.219-107.488 107.488-107.488 26.875 0 51.481 9.918 70.348 26.285l-23.152 23.153zm0 0" clip-path="url(#b)" fill="#231f20"/></svg>