<svg xmlns="http://www.w3.org/2000/svg" xmlns:xlink="http://www.w3.org/1999/xlink" viewBox="0 0 1461.146 1095.109"><defs><path id="a" d="M525 371.109h410v354H525z"/></defs><clipPath id="b"><use xlink:href="#a" overflow="visible"/></clipPath><path d="M827.887 576.306c-27.559-33.274-62.391-51.602-98.086-51.602-35.696 0-70.531 18.328-98.086 51.602-24.774 29.906-39.559 67.598-39.559 100.828 0 16.141 4.934 28.434 14.664 36.543 9.606 8 22.285 10.707 36.434 10.707 15.055 0 31.769-3.066 48.191-6.078 14.352-2.633 27.907-5.117 38.356-5.117 9.019 0 21.73 2.359 35.191 4.855 31.453 5.84 67.106 12.461 87.699-4.664 9.789-8.141 14.754-20.336 14.754-36.246 0-33.23-14.789-70.922-39.558-100.828zm9.461 118.621c-11.942 9.926-43.012 4.156-67.977-.477-14.578-2.707-28.344-5.261-39.57-5.261-12.633 0-27.231 2.675-42.688 5.511-23.945 4.395-53.742 9.86-64.929.539-1.493-1.242-6.032-5.023-6.032-18.109 0-27.394 13.047-60.164 34.043-85.519 22.918-27.668 51.188-42.907 79.602-42.907 28.418 0 56.687 15.239 79.605 42.907 20.996 25.355 34.039 58.125 34.039 85.519.004 12.727-4.586 16.543-6.093 17.797zm0 0" clip-path="url(#b)"/><path d="M830.703 395.626c-10.082-14.867-24.519-23.39-39.613-23.39s-29.531 8.527-39.613 23.39c-9.262 13.656-14.364 31.59-14.364 50.5s5.102 36.844 14.364 50.5c10.082 14.863 24.523 23.391 39.613 23.391 15.094 0 29.531-8.528 39.613-23.391 9.262-13.656 14.363-31.59 14.363-50.5s-5.097-36.844-14.363-50.5zm-19.859 87.528c-3.258 4.804-10.16 12.863-19.754 12.863s-16.492-8.059-19.75-12.863c-6.5-9.583-10.227-23.079-10.227-37.028s3.727-27.445 10.227-37.027c3.258-4.805 10.156-12.867 19.75-12.867s16.496 8.058 19.754 12.867c6.496 9.582 10.226 23.078 10.226 37.027-.004 13.949-3.73 27.445-10.226 37.028zm0 0"/><defs><path id="c" d="M525 371.109h410v354H525z"/></defs><clipPath id="d"><use xlink:href="#c" overflow="visible"/></clipPath><path d="M708.125 395.626c-10.086-14.867-24.523-23.394-39.613-23.394-15.094 0-29.532 8.527-39.614 23.394-9.265 13.656-14.367 31.59-14.367 50.5 0 18.906 5.102 36.844 14.367 50.5 10.082 14.863 24.52 23.391 39.614 23.391 15.09 0 29.527-8.528 39.613-23.391 9.262-13.656 14.363-31.59 14.363-50.5s-5.101-36.844-14.363-50.5zm-19.863 87.528c-3.258 4.804-10.16 12.863-19.754 12.863s-16.492-8.059-19.75-12.863c-6.5-9.583-10.227-23.079-10.227-37.028s3.727-27.445 10.227-37.027c3.258-4.805 10.156-12.867 19.75-12.867 9.597 0 16.496 8.058 19.754 12.867 6.5 9.582 10.226 23.078 10.226 37.027s-3.726 27.445-10.226 37.028zm243.953 28.46c-4.063-13.828-12.777-23.875-24.531-28.289-9.461-3.55-20.137-2.949-30.067 1.696-13.683 6.406-24.871 19.629-30.683 36.277-4.754 13.606-5.348 27.988-1.668 40.5 4.062 13.824 12.777 23.871 24.531 28.289 4.066 1.527 8.359 2.285 12.723 2.285 5.781 0 11.683-1.336 17.343-3.984 13.684-6.402 24.871-19.625 30.684-36.274 4.754-13.605 5.348-27.988 1.668-40.5zM907.891 544.2c-3.645 10.43-10.45 18.825-18.2 22.454-2.851 1.332-7.152 2.582-11.457.964-10.39-3.902-14.429-21.851-8.648-38.406 3.644-10.433 10.449-18.824 18.203-22.453 1.887-.883 4.414-1.73 7.156-1.73 1.395 0 2.848.218 4.297.761 10.391 3.906 14.434 21.852 8.649 38.41zm-295.223-22.902c-5.816-16.652-17-29.875-30.684-36.277-9.929-4.645-20.609-5.246-30.066-1.696-11.754 4.414-20.469 14.461-24.531 28.289-3.68 12.508-3.086 26.891 1.668 40.497v.003c5.816 16.649 17 29.872 30.683 36.274 5.66 2.648 11.563 3.984 17.344 3.984 4.363 0 8.656-.761 12.723-2.289 11.757-4.414 20.468-14.461 24.535-28.289 3.676-12.508 3.082-26.89-1.672-40.496zm-31.305 46.32c-4.304 1.618-8.605.368-11.453-.964-7.75-3.629-14.555-12.024-18.199-22.454-5.785-16.558-1.742-34.504 8.648-38.406 4.301-1.617 8.606-.367 11.453.965 7.754 3.629 14.559 12.023 18.2 22.453 5.785 16.559 1.742 34.504-8.649 38.406zm0 0" clip-path="url(#d)"/></svg>