<svg xmlns="http://www.w3.org/2000/svg" viewBox="0 0 1461.146 1095.109"><path d="M680.113 534.453c24.93 0 45.207-27.215 45.207-60.668s-20.281-60.676-45.207-60.676c-24.922 0-45.203 27.219-45.203 60.676 0 33.453 20.281 60.668 45.203 60.668zm134.082 59.012c-.925-1.262-1.816-2.453-2.289-3.477-10.109-21.637-37.816-47.144-82.707-47.781l-1.726-.008c-44.2 0-71.703 24.156-82.703 46.774-.383.777-1.219 1.781-2.102 2.839-1.051 1.247-2.086 2.52-2.973 3.903-9.297 14.457-14.035 30.738-13.336 45.84.735 16.027 7.446 28.902 18.868 36.246 4.613 2.965 9.593 4.461 14.816 4.461 10.769 0 20.633-6.071 32.062-13.098 7.266-4.477 14.774-9.098 23.11-12.555.933-.308 4.762-.781 11.023-.781 7.446 0 12.793.664 13.938 1.059 8.136 3.593 15.285 8.304 22.195 12.855 10.598 6.984 20.606 13.574 31.461 13.574 4.66 0 9.176-1.23 13.438-3.648 23.503-13.356 27.984-49.996 9.988-81.672-.903-1.59-1.981-3.074-3.063-4.531zm-37.957-59.012c24.918 0 45.2-27.215 45.2-60.668s-20.282-60.676-45.2-60.676c-24.933 0-45.211 27.219-45.211 60.676 0 33.453 20.278 60.668 45.211 60.668zm74.239-31.156c-19.981 0-35.618 20.722-35.618 47.176 0 26.441 15.645 47.164 35.618 47.164 19.968 0 35.625-20.723 35.625-47.164 0-26.454-15.649-47.176-35.625-47.176zm-205.239 47.176c0-26.454-15.644-47.176-35.617-47.176S574 524.019 574 550.473c0 26.441 15.648 47.164 35.621 47.164s35.617-20.723 35.617-47.164zm0 0"/></svg>