<svg xmlns="http://www.w3.org/2000/svg" xmlns:xlink="http://www.w3.org/1999/xlink" viewBox="0 0 1461.146 1095.109"><defs><path id="a" d="M525 343.109h409.92v410.88H525z"/></defs><clipPath id="b"><use xlink:href="#a" overflow="visible"/></clipPath><path d="M922.641 477.746l-184.254-63.641v-10.988c0-4.715-3.821-8.536-8.532-8.536-9.425 0-17.066-7.64-17.066-17.066 0-9.426 7.641-17.066 17.066-17.066 9.426 0 17.067 7.64 17.067 17.066h17.066c-.004-15.562-10.535-29.148-25.601-33.039-18.254-4.715-36.867 6.262-41.582 24.516-4.715 18.25 6.261 36.867 24.515 41.582v3.531l-184.761 63.84A18.769 18.769 0 0 0 525 495.331c.031 10.368 8.461 18.747 18.828 18.715h39.883l-3.387 81.489c-.004.07.004.14 0 .211l-1.695 40.394v.02l-2.367 56.703a8.536 8.536 0 0 0 1.426 5.121l34.132 51.199a8.537 8.537 0 0 0 7.102 3.797 8.535 8.535 0 0 0 7.101-3.82l23.715-35.582c.121-.157.246-.309.356-.473l10.07-15.094a8.536 8.536 0 0 0 1.426-5.121l-.754-17.973c0-.007.004-.015 0-.023l-6.699-160.848h14.91l-7.449 178.817a8.542 8.542 0 0 0 1.425 5.121l34.133 51.199a8.527 8.527 0 0 0 7.102 3.797 8.527 8.527 0 0 0 7.105-3.77l34.133-51.199a8.536 8.536 0 0 0 1.426-5.121l-7.453-178.844h67.187v8.535c0 .2.016.399.028.594a31.117 31.117 0 0 0-15.508 7.676 26.072 26.072 0 0 0-10.121 17.918c0 .965.164 1.918.484 2.828l15.566 44.457a16.745 16.745 0 0 0 9.551 10.555v19.68a16.74 16.74 0 0 0-9.551 10.554l-15.566 44.469a8.326 8.326 0 0 0-.484 2.816 26.044 26.044 0 0 0 10.129 17.911 32.71 32.71 0 0 0 15.5 7.679c-.012.199-.032.395-.032.598v34.133c0 4.711 3.821 8.531 8.536 8.531h34.132a8.533 8.533 0 0 0 8.535-8.531v-34.133c0-.211-.019-.414-.031-.621a31.281 31.281 0 0 0 15.5-7.656 26.023 26.023 0 0 0 10.129-17.922 8.238 8.238 0 0 0-.484-2.817l-15.567-44.457a16.757 16.757 0 0 0-9.547-10.558v-19.676a16.744 16.744 0 0 0 9.547-10.555l15.567-44.461c.32-.906.488-1.859.484-2.824a26.056 26.056 0 0 0-10.121-17.91 31.293 31.293 0 0 0-15.508-7.66c.012-.207.031-.41.031-.618v-8.535h58.024a18.766 18.766 0 0 0 17.562-12.047c3.715-9.679-1.121-20.539-10.8-24.253zM595.812 633.761l.606-14.711 32.187 40.235 15.293 19.125.512 12.414-1.945 2.929-46.653-59.992zm16.692-21.937l-15-18.762 4-96.082h34.832l6.394 152.594-30.226-37.75zm6.418 117.265l-25.488-38.265 1.277-30.653 15.574 20.028 22.195 28.554-13.558 20.336zm85.332 0l-25.488-38.265 8.074-193.844h34.832l6.394 153.601h-15.277v17.067h15.988l.356 8.535h-16.344v17.066h15.356l-23.891 35.84zm136.535-215.043h-17.066V496.98h17.066v17.066zm0 110.934h-17.066v-17.066h17.066v17.066zm0 110.934h-17.066v-17.067h17.066v17.067zm25.293-51.2a17.738 17.738 0 0 1-14.832 8.422l-17.57-2.969a8.976 8.976 0 0 0-2.852 0l-17.57 2.969a17.907 17.907 0 0 1-14.871-8.32l14.941-42.672.059-.156c.008.062.086.062.254.062l37.539.137 14.902 42.527zm.043-136.617l-14.941 42.664-.063.156c-.008-.07-.051-.07-.137-.07l-.109.02-1.297-.004c-.086-.004-.172-.016-.258-.016h-3.816l-32.176-.101-14.898-42.532a17.754 17.754 0 0 1 14.832-8.445l17.57 2.977a8.95 8.95 0 0 0 2.848 0l17.57-2.977a17.921 17.921 0 0 1 14.875 8.328zm49.758-51.117h-58.028v-8.531a8.533 8.533 0 0 0-8.535-8.535h-34.132a8.533 8.533 0 0 0-8.532 8.535v8.531h-67.898l-.371-8.891a8.535 8.535 0 0 0-8.532-8.175h-51.199a8.534 8.534 0 0 0-8.527 8.152l-.371 8.914h-16.332l-.371-8.891a8.535 8.535 0 0 0-8.535-8.175h-51.2a8.53 8.53 0 0 0-8.531 8.175l-.371 8.891h-40.59a1.706 1.706 0 0 1-1.707-1.703c0-.516.184-1.012.52-1.403l187.214-64.664 186.7 64.469a1.71 1.71 0 0 1 1.105 1.672 1.701 1.701 0 0 1-1.777 1.629zm0 0" clip-path="url(#b)"/></svg>