<svg xmlns="http://www.w3.org/2000/svg" viewBox="-49 141 512 512"><path d="M98.192 363.978v130.95H54.815V291.239a41.383 41.383 0 0 1 25.977-38.409l21.459-8.608h190.042l21.459 8.608a41.384 41.384 0 0 1 25.977 38.409v203.689h-43.377v-130.95L290.371 361l-23.653 54.703H127.882l-23.708-51.725h-5.982z" fill="#ff5d5d"/><path fill="#fff" d="M141.335 227.375l-39.084 15.631 25.939 94.981h26.122l-16.396 21.909 59.343 55.914h.026l59.344-55.914-16.396-21.909h26.122l25.938-94.981-36.436-14.572z"/><path d="M198.025 216.168h32.94c19.229 0 31.174 20.899 21.416 37.467l-55.084 93.532-55.084-93.532c-9.758-16.569 2.188-37.467 21.416-37.467h32.94" fill="#686c83"/><path fill="#ff5d5d" d="M308.343 643l-41.625-227.297H127.882L85.42 643z"/><path d="M317.476 243.549l-17.608-7.062a9.956 9.956 0 0 0-3.861-2.765l-36.438-14.572a10.009 10.009 0 0 0-1.92-.554c-6.548-7.866-16.143-12.427-26.684-12.427h-23.68v-1.847c13.014-4.226 22.448-16.469 22.448-30.873 0-17.892-14.556-32.449-32.448-32.449s-32.448 14.557-32.448 32.448c0 5.522 4.478 10 10 10s10-4.478 10-10c0-6.864 5.584-12.448 12.448-12.448s12.448 5.584 12.448 12.448c0 6.864-5.584 12.449-12.448 12.449-5.522 0-10 4.478-10 10v10.271H163.63c-10.388 0-19.861 4.423-26.401 12.079l-38.692 15.475a9.956 9.956 0 0 0-3.861 2.765l-17.607 7.062c-19.594 7.858-32.255 26.578-32.255 47.69v203.688c0 5.522 4.478 10 10 10h43.377a9.99 9.99 0 0 0 2.931-.439L75.59 641.164A9.999 9.999 0 0 0 85.42 653h222.923a10 10 0 0 0 9.836-11.802l-25.055-136.813a9.972 9.972 0 0 0 3.229.543h43.378c5.522 0 10-4.478 10-10V291.239c-.001-21.112-12.662-39.832-32.255-47.69zm-85.249 100.43l11.047 14.761-35.977 33.897v-42.744l53.701-91.183c2.868-4.87 4.464-10.173 4.803-15.528l14.495 5.797-21.577 79.009h-18.486a10 10 0 0 0-8.006 15.991zM238.206 258l-40.909 69.461L156.389 258h81.817zm-7.241-31.832c5.396 0 10.218 2.797 12.896 7.482a15.06 15.06 0 0 1 1.66 4.35h-38.235v-11.832h23.679zm-67.335 0h23.655V238h-38.211a15.034 15.034 0 0 1 1.659-4.349c2.678-4.685 7.499-7.483 12.897-7.483zm-34.838 16.994c.337 5.362 1.933 10.672 4.805 15.548l53.7 91.183v42.79l-36.025-33.943 11.047-14.762a10 10 0 0 0-8.006-15.991h-18.486l-21.577-79.009 14.542-5.816zM98.191 415.173c-5.522 0-10 4.478-10 10v59.755H64.814V291.239c0-12.895 7.732-24.328 19.7-29.128l11.345-4.551 22.683 83.061a10 10 0 0 0 9.646 7.365h6.148l-4.429 5.918a10 10 0 0 0 1.149 13.27l40.892 38.528h-37.834l-20.839-45.862c-2.285-5.028-8.213-7.251-13.241-4.968-5.028 2.285-7.252 8.213-4.968 13.241l22.343 49.174-9.221 49.361v-41.476c.003-5.522-4.474-9.999-9.997-9.999zM97.461 633l38.726-207.297h51.11v137.596c0 5.522 4.478 10 10 10s10-4.478 10-10V425.703h51.086L296.345 633H97.461zM329.73 484.928h-23.378v-59.755c0-5.522-4.478-10-10-10s-10 4.478-10 10v42.236l-9.191-50.186 22.313-49.108c2.284-5.028.061-10.956-4.968-13.241-5.027-2.282-10.956-.061-13.241 4.968l-20.838 45.862h-37.834l40.892-38.528a10 10 0 0 0 1.148-13.271l-4.428-5.917h6.147a10 10 0 0 0 9.646-7.365l22.684-83.062 11.346 4.551c11.968 4.8 19.7 16.233 19.7 29.128v193.688h.002z"/><path d="M197.295 590.67c-2.63 0-5.21 1.06-7.07 2.93-1.859 1.86-2.93 4.44-2.93 7.07s1.07 5.2 2.93 7.07c1.86 1.859 4.44 2.93 7.07 2.93s5.21-1.07 7.07-2.93a10.08 10.08 0 0 0 2.93-7.07c0-2.64-1.07-5.21-2.93-7.07a10.011 10.011 0 0 0-7.07-2.93zm231.109-368.497h-6.858c-5.522 0-10 4.478-10 10s4.478 10 10 10h6.858c5.522 0 10-4.478 10-10s-4.477-10-10-10zm-48.52 0h-6.859c-5.522 0-10 4.478-10 10s4.478 10 10 10h6.859c5.522 0 10-4.478 10-10s-4.478-10-10-10zm20.831 20.831c-5.522 0-10 4.478-10 10v6.859c0 5.522 4.478 10 10 10s10-4.478 10-10v-6.859c0-5.523-4.478-10-10-10zm0-48.521c-5.522 0-10 4.478-10 10v6.859c0 5.522 4.478 10 10 10s10-4.478 10-10v-6.859c0-5.522-4.478-10-10-10zM40.975 523.609h-6.858c-5.522 0-10 4.478-10 10s4.478 10 10 10h6.858c5.522 0 10-4.478 10-10s-4.478-10-10-10zm-48.521 0h-6.858c-5.522 0-10 4.478-10 10s4.478 10 10 10h6.858c5.522 0 10-4.478 10-10s-4.477-10-10-10zm20.831 20.831c-5.522 0-10 4.478-10 10v6.858c0 5.522 4.478 10 10 10s10-4.478 10-10v-6.858c0-5.522-4.477-10-10-10zm0-48.52c-5.522 0-10 4.478-10 10v6.858c0 5.522 4.478 10 10 10s10-4.478 10-10v-6.858c0-5.523-4.477-10-10-10z"/></svg>