<svg xmlns="http://www.w3.org/2000/svg" xmlns:xlink="http://www.w3.org/1999/xlink" viewBox="0 0 1461.146 1095.109"><defs><path id="a" d="M525 343.109h409.92v410.88H525z"/></defs><clipPath id="b"><use xlink:href="#a" overflow="visible"/></clipPath><path d="M932.258 499.374l-10.457-10.458v-84.359c0-33.703-27.422-61.121-61.125-61.121-13.867 0-26.664 4.648-36.93 12.457-45.254-22.219-101.59-14.535-139.176 23.051-40.254 40.25-46.203 102.008-17.863 148.625l-45.832 45.836h-19.363a8 8 0 0 0-8 8v14.676h-14.676a8 8 0 0 0-8 8v14.675H556.16a8 8 0 0 0-8 8v14.676h-14.676a8 8 0 0 0-5.656 2.344l-.484.484a8 8 0 0 0-2.344 5.656v51.907a8 8 0 0 0 8 8h52.875c2.121 0 4.156-.84 5.656-2.34l88.25-88.25a8.005 8.005 0 0 0 0-11.313 8.001 8.001 0 0 0-11.316 0l-85.903 85.907H541v-36.395h15.16a8 8 0 0 0 8-8v-14.676h14.676a8 8 0 0 0 8-8v-14.679h14.68a8 8 0 0 0 8-8v-14.676h14.675a8.003 8.003 0 0 0 5.657-2.344l46.211-46.211a121.294 121.294 0 0 0 8.515 9.453c21.645 21.645 50.039 34.086 80.434 35.371v133.75c0 18.528 15.074 33.602 33.597 33.602h102.399c18.527 0 33.601-15.074 33.601-33.602V505.03a8.016 8.016 0 0 0-2.347-5.656zm-71.582-139.942c24.883 0 45.125 20.242 45.125 45.125v68.359l-14.387-14.386c-.07-.071-.144-.129-.219-.199-1.488-28.899-13.242-57.364-35.265-79.391a121.691 121.691 0 0 0-16.805-14.02 44.872 44.872 0 0 1 21.551-5.488zm-45.121 67.848v-17.66a19.28 19.28 0 0 1 5.75 3.949 19.268 19.268 0 0 1 5.679 13.711 19.269 19.269 0 0 1-5.679 13.715c-7.563 7.562-19.864 7.562-27.426 0-7.563-7.563-7.563-19.868 0-27.426a19.308 19.308 0 0 1 5.676-3.914v17.625a8 8 0 0 0 16 0zm-45.309 142.461c-26.926 0-53.863-10.254-74.363-30.754-41.004-41.004-41.004-107.727 0-148.731 19.863-19.863 46.273-30.804 74.367-30.804 14.512 0 28.574 2.925 41.516 8.488a60.917 60.917 0 0 0-11.024 24.629 35.164 35.164 0 0 0-18.176 9.683c-13.8 13.801-13.8 36.254 0 50.055 6.899 6.899 15.961 10.348 25.024 10.348 9.062 0 18.129-3.449 25.027-10.348 6.684-6.687 10.367-15.574 10.367-25.027s-3.683-18.344-10.367-25.028a35.17 35.17 0 0 0-15.609-9.07 45.003 45.003 0 0 1 9.168-17.668 105.99 105.99 0 0 1 18.437 14.742c19.864 19.864 30.805 46.274 30.805 74.368 0 28.089-10.941 54.5-30.805 74.367-20.504 20.504-47.429 30.754-74.367 30.75zm148.356 149.683c0 9.703-7.899 17.602-17.602 17.602H798.602c-9.704 0-17.598-7.899-17.598-17.602V585.315c28.305-2.473 54.594-14.68 74.926-35.012 19.683-19.683 31.156-44.508 34.441-70.191l28.231 28.23v211.082zm0 0" clip-path="url(#b)"/><path d="M729.516 423.889c3.125-3.121 3.125-8.187 0-11.312a7.998 7.998 0 0 0-11.313 0c-28.699 28.699-28.699 75.394 0 104.089 1.563 1.563 3.609 2.344 5.656 2.344s4.094-.781 5.657-2.344c3.125-3.121 3.125-8.187 0-11.312-22.457-22.461-22.457-59.004 0-81.465zm25.433 96.348a1.893 1.893 0 0 1-.137-.039c-4.253-1.172-8.644 1.328-9.82 5.582-1.18 4.254 1.324 8.66 5.574 9.847a8.001 8.001 0 0 0 9.879-5.5c1.215-4.246-1.246-8.675-5.496-9.89zm128.852 173.59h-68a8 8 0 0 0 0 16h68a8 8 0 0 0 0-16zM700.293 587.405a8.054 8.054 0 0 0-5.656-2.344 8.064 8.064 0 0 0-5.657 2.344 8.058 8.058 0 0 0-2.343 5.656c0 2.102.855 4.168 2.343 5.656a8.064 8.064 0 0 0 5.657 2.344 8.04 8.04 0 0 0 5.656-2.344 8.03 8.03 0 0 0 2.344-5.656 8.025 8.025 0 0 0-2.344-5.656zm0 0"/></svg>