<svg xmlns="http://www.w3.org/2000/svg" viewBox="-49 141 512 512"><path fill="#d8d8e4" d="M193.048 423.041L27.095 588.995H-39v-64.887l.604-.604h28.345v-28.345h28.345v-28.346H46.64v-28.345h28.345l62.42-62.42z"/><path d="M261.005 610.995V343.001l95.998-95.998L453 343.001v267.994c0 17.673-14.327 31.999-31.999 31.999H293.004c-17.673 0-31.999-14.326-31.999-31.999z" fill="#ff5d5d"/><path d="M157.532 192.463c55.245-55.245 144.814-55.245 200.058 0 55.245 55.245 55.245 144.814 0 200.058-55.245 55.245-144.814 55.245-200.058 0s-55.244-144.814 0-200.058z" fill="#edf2fa"/><circle cx="304.242" cy="245.818" r="34.239" fill="#fff"/><path d="M460.071 335.929L447 322.859V217.41c0-42.129-34.274-76.403-76.403-76.403-17.334 0-33.33 5.811-46.164 15.575-56.567-27.773-126.989-18.172-173.972 28.81-50.315 50.316-57.75 127.511-22.326 185.784l-57.292 57.292H46.641c-5.522 0-10 4.477-10 10v18.346H18.294c-5.522 0-10 4.477-10 10v18.346h-18.346c-5.522 0-10 4.477-10 10v18.346h-18.346a10.003 10.003 0 0 0-7.071 2.929l-.604.604a10.005 10.005 0 0 0-2.929 7.072v64.886c0 5.523 4.478 10 10 10h66.095c2.652 0 5.195-1.054 7.071-2.929l110.309-110.309c3.905-3.905 3.905-10.237 0-14.143-3.906-3.905-10.236-3.905-14.143 0L22.952 578.995H-29v-45.492h18.95c5.522 0 10-4.477 10-10v-18.346h18.346c5.522 0 10-4.477 10-10v-18.346h18.347c5.522 0 10-4.477 10-10v-18.346h18.346c2.652 0 5.195-1.054 7.071-2.929l57.765-57.764a152.462 152.462 0 0 0 10.642 11.817c27.056 27.056 62.548 42.607 100.543 44.215v167.187c0 23.158 18.841 41.999 41.999 41.999h127.997c23.158 0 41.999-18.841 41.999-41.999V342.999a10.028 10.028 0 0 0-2.934-7.07zm-89.475-174.923c31.101 0 56.404 25.302 56.404 56.404v85.449l-17.982-17.982c-.088-.088-.183-.163-.273-.247-1.861-36.125-16.552-71.707-44.083-99.24a151.814 151.814 0 0 0-21.004-17.525 56.07 56.07 0 0 1 26.938-6.859zm-205.993 38.528c24.83-24.83 57.844-38.505 92.959-38.505 18.141 0 35.716 3.659 51.897 10.61a76.076 76.076 0 0 0-13.783 30.788 43.983 43.983 0 0 0-22.72 12.104c-17.249 17.25-17.249 45.316 0 62.566 8.626 8.625 19.953 12.937 31.283 12.937 11.327 0 22.658-4.313 31.282-12.937 8.356-8.356 12.959-19.467 12.959-31.283s-4.603-22.927-12.959-31.283a43.943 43.943 0 0 0-19.512-11.341c2.149-8.244 6.126-15.753 11.463-22.082a132.491 132.491 0 0 1 23.046 18.427c24.83 24.83 38.505 57.843 38.505 92.958s-13.675 68.128-38.505 92.958c-25.631 25.632-59.29 38.446-92.959 38.443-33.66-.003-67.332-12.818-92.958-38.443-51.254-51.259-51.254-134.661.002-185.917zm139.589 56.279c5.522 0 10-4.477 10-10v-22.074a24.075 24.075 0 0 1 7.188 4.934c4.579 4.579 7.102 10.666 7.102 17.141a24.081 24.081 0 0 1-7.102 17.142c-9.45 9.452-24.829 9.453-34.281 0-9.452-9.452-9.452-24.831 0-34.282a24.074 24.074 0 0 1 7.094-4.89v22.03c-.001 5.522 4.477 9.999 9.999 9.999zM443 610.994c0 12.131-9.869 22-21.999 22H293.004c-12.131 0-21.999-9.869-21.999-22V443.358c35.384-3.092 68.242-18.352 93.658-43.767 24.603-24.603 38.946-55.635 43.05-87.737L443 347.141v263.853z"/><path d="M206.646 227.435c-3.906-3.905-10.236-3.905-14.143 0-35.872 35.873-35.872 94.242 0 130.114 1.953 1.953 4.512 2.929 7.071 2.929s5.118-.977 7.071-2.929c3.905-3.905 3.905-10.237 0-14.142-28.074-28.075-28.074-73.756 0-101.831 3.907-3.904 3.907-10.236.001-14.141zm31.791 134.576l-.172-.048c-5.315-1.469-10.804 1.658-12.275 6.977-1.473 5.315 1.657 10.825 6.97 12.307.913.259 1.831.382 2.735.382 4.352 0 8.355-2.863 9.61-7.255 1.518-5.311-1.557-10.846-6.868-12.363zm161.064 216.984h-84.998c-5.522 0-10 4.477-10 10s4.478 10 10 10h84.998c5.522 0 10-4.477 10-10s-4.478-10-10-10zM163.047 443.039c-2.63 0-5.21 1.07-7.07 2.93-1.86 1.86-2.93 4.44-2.93 7.07s1.069 5.21 2.93 7.07a10.077 10.077 0 0 0 7.07 2.93c2.64 0 5.21-1.07 7.069-2.93 1.87-1.86 2.931-4.44 2.931-7.07s-1.061-5.21-2.931-7.07a10.072 10.072 0 0 0-7.069-2.93z"/></svg>