<svg xmlns="http://www.w3.org/2000/svg" viewBox="-49 141 512 512"><path d="M421 391c17.673 0 32-14.327 32-32 0-17.673-14.327-32-32-32-17.673 0-32 14.327-32 32v257h40.009l-.007-128.628a362.366 362.366 0 0 1 16.337-107.597m-476.679.001a362.366 362.366 0 0 1 16.337 107.597L-15.01 616H25V359c0-17.673-14.327-32-32-32-17.673 0-32 14.327-32 32 0 17.673 14.327 32 32 32" fill="#fe8f8d"/><path d="M357 458H57c-17.673 0-32 14.327-32 32v72h364v-72c0-17.673-14.327-32-32-32z" fill="#ff5d5d"/><path d="M357 354H57c-17.673 0-32 14.327-32 32v40c0 17.673 14.327 32 32 32h300c17.673 0 32-14.327 32-32v-40c0-17.673-14.327-32-32-32z" fill="#fe8f8d"/><path d="M42 354l-23.747-77.398C3.215 227.588 39.87 178 91.138 178h231.723c51.269 0 87.924 49.588 72.886 98.602L372 354" fill="#ff5d5d"/><path d="M207 188c2.63 0 5.21-1.07 7.07-2.931 1.86-1.859 2.93-4.439 2.93-7.069s-1.07-5.21-2.93-7.07c-1.86-1.86-4.44-2.93-7.07-2.93s-5.21 1.069-7.07 2.93A10.058 10.058 0 0 0 197 178c0 2.63 1.07 5.21 2.93 7.069A10.072 10.072 0 0 0 207 188z"/><path d="M454.345 384.509A41.783 41.783 0 0 0 463 359c0-23.159-18.841-42-42-42-12.59 0-23.895 5.576-31.599 14.378l15.906-51.843c8.108-26.426 3.335-54.33-13.096-76.559C375.78 180.749 350.503 168 322.861 168H250c-5.523 0-10 4.478-10 10s4.477 10 10 10h72.861c21.231 0 40.646 9.792 53.267 26.865 12.62 17.073 16.286 38.506 10.059 58.803l-21.784 70.999A42.01 42.01 0 0 0 357 344H57a42.01 42.01 0 0 0-7.403.667l-21.784-70.999c-6.228-20.297-2.562-41.729 10.059-58.803C50.492 197.792 69.907 188 91.139 188H163c5.523 0 10-4.478 10-10s-4.477-10-10-10H91.139c-27.642 0-52.919 12.749-69.35 34.977C5.358 225.206.585 253.11 8.693 279.536l15.906 51.843C16.895 322.576 5.59 317-7 317c-23.159 0-42 18.841-42 42a41.783 41.783 0 0 0 8.655 25.509 352.002 352.002 0 0 1 15.342 102.862l-.004 74.62v.018l-.003 53.99a10 10 0 0 0 10 10.001H25c5.523 0 10-4.478 10-10v-44h344v44c0 5.522 4.477 10 10 10h40.01a10.001 10.001 0 0 0 10-10.001l-.003-53.99v-.018l-.004-74.62a352.002 352.002 0 0 1 15.342-102.862zM399 359c0-12.131 9.869-22 22-22s22 9.869 22 22-9.869 22-22 22c-5.523 0-10 4.478-10 10s4.477 10 10 10c2.859 0 5.651-.287 8.352-.834a371.909 371.909 0 0 0-10.349 87.207l.003 64.627H399V359zm-42 5c12.131 0 22 9.869 22 22v40c0 12.131-9.869 22-22 22H57c-11.456 0-20.891-8.803-21.905-20h92.38c5.523 0 10-4.478 10-10s-4.477-10-10-10H35v-22c0-12.131 9.869-22 22-22h300zm-386-5c0-12.131 9.869-22 22-22s22 9.869 22 22v193H-5.006l.003-64.627a371.962 371.962 0 0 0-10.349-87.207c2.701.547 5.493.834 8.352.834 5.523 0 10-4.478 10-10s-4.477-10-10-10c-12.131 0-22-9.869-22-22zm23.991 247l.002-34H15v34H-5.009zM35 490c0-12.131 9.869-22 22-22h300c12.131 0 22 9.869 22 22v62H35v-62zm364 116v-34h20.007l.002 34H399z"/><path d="M163.83 428c2.63 0 5.21-1.07 7.07-2.931 1.86-1.859 2.93-4.439 2.93-7.069s-1.07-5.21-2.93-7.07a10.093 10.093 0 0 0-7.07-2.93c-2.64 0-5.21 1.069-7.08 2.93-1.86 1.86-2.92 4.44-2.92 7.07s1.06 5.21 2.92 7.069a10.078 10.078 0 0 0 7.08 2.931z"/></svg>