<svg xmlns="http://www.w3.org/2000/svg" viewBox="-49 141 512 512"><path d="M352.067 428.834c-23.552 0-42.667 19.115-42.667 42.667s19.115 42.667 42.667 42.667c23.552 0 42.667-19.115 42.667-42.667s-19.115-42.667-42.667-42.667zm0 68.266c-14.08 0-25.6-11.52-25.6-25.6 0-14.08 11.52-25.6 25.6-25.6s25.6 11.52 25.6 25.6c0 14.08-11.52 25.6-25.6 25.6z"/><circle cx="352.067" cy="471.5" r="25.6" fill="#fff"/><path d="M61.933 428.834c-23.552 0-42.667 19.115-42.667 42.667s19.115 42.667 42.667 42.667S104.6 495.052 104.6 471.5s-19.115-42.666-42.667-42.666zm0 68.266c-14.08 0-25.6-11.52-25.6-25.6 0-14.08 11.52-25.6 25.6-25.6s25.6 11.52 25.6 25.6c0 14.08-11.52 25.6-25.6 25.6z"/><circle cx="61.933" cy="471.5" r="25.6" fill="#fff"/><path d="M454.467 428.834v-51.2c0-3.669-2.389-6.912-5.803-8.107l-48.213-16.043c-18.091-30.72-43.008-59.904-98.133-69.547-.085-.085-.171-.085-.256-.085-101.717-14.08-178.091 8.875-227.157 68.181-56.661.853-115.371 18.688-115.371 51.2v25.6c-4.693 0-8.533 3.84-8.533 8.533V471.5c0 4.693 3.84 8.533 8.533 8.533h34.133c4.693 0 8.533-3.84 8.533-8.533 0-32.939 26.795-59.733 59.733-59.733s59.733 26.795 59.733 59.733c0 4.693 3.84 8.533 8.533 8.533h153.6c4.693 0 8.533-3.84 8.533-8.533 0-32.939 26.795-59.733 59.733-59.733S411.8 438.562 411.8 471.5c0 4.693 3.84 8.533 8.533 8.533h34.133c4.693 0 8.533-3.84 8.533-8.533v-34.133c.001-4.693-3.839-8.533-8.532-8.533zM343.96 316.706c14.848 9.045 25.856 21.077 35.413 35.328h-35.755l.342-35.328zm-102.827-19.798c18.261-.256 37.632.939 58.368 3.84 10.325 1.792 19.371 4.352 27.477 7.595l-.427 43.691h-85.419v-55.126zm-17.066.683v54.443H97.944c31.659-32.598 73.387-50.688 126.123-54.443zm221.866 165.376h-17.579c-4.181-38.315-36.864-68.267-76.288-68.267s-72.107 29.952-76.288 68.267H138.221c-4.181-38.315-36.864-68.267-76.288-68.267s-72.107 29.952-76.288 68.267h-17.579V445.9c4.693 0 8.533-3.84 8.533-8.533v-25.6h8.533c4.693 0 8.533-3.84 8.533-8.533s-3.84-8.533-8.533-8.533h-4.437c11.52-12.544 46.848-25.6 98.304-25.6h314.368l44.032 14.677V394.7h-8.533c-4.693 0-8.533 3.84-8.533 8.533s3.84 8.533 8.533 8.533h8.533v25.6c0 4.693 3.84 8.533 8.533 8.533v17.068z"/><path d="M79 471.5c0-12.621-9.276-23.108-21.333-25.165-12.058 2.057-21.333 12.544-21.333 25.165 0 12.621 9.276 23.108 21.333 25.165C69.724 494.609 79 484.121 79 471.5z" fill="#fff"/><path d="M61.933 445.9c-1.459 0-2.867.196-4.267.435C69.724 448.392 79 458.879 79 471.5c0 12.621-9.276 23.108-21.333 25.165 1.399.239 2.807.435 4.267.435 14.08 0 25.6-11.52 25.6-25.6-.001-14.08-11.521-25.6-25.601-25.6z" fill="#f4f4f4"/><path d="M369.133 471.065c0-12.621-9.276-23.108-21.333-25.165-12.058 2.057-21.333 12.544-21.333 25.165 0 12.621 9.276 23.108 21.333 25.165 12.058-2.048 21.333-12.544 21.333-25.165z" fill="#fff"/><path d="M352.067 445.9c-1.459 0-2.867.196-4.267.435 12.058 2.057 21.333 12.544 21.333 25.165 0 12.621-9.276 23.108-21.333 25.165 1.399.239 2.807.435 4.267.435 14.08 0 25.6-11.52 25.6-25.6 0-14.08-11.52-25.6-25.6-25.6z" fill="#f4f4f4"/><path d="M343.96 317.004l-.213 21.922h18.475c-5.436-8.106-11.452-15.394-18.262-21.922zm-102.827-20.096v42.018h75.008l.333-34.116c3.635 1.084 7.202 2.21 10.505 3.533-8.107-3.243-17.152-5.803-27.477-7.595-20.737-2.901-40.107-4.096-58.369-3.84zm-128.802 42.018h101.325v-40.209c3.465-.384 6.844-.87 10.411-1.126-47.539 3.388-86.05 18.526-116.386 45.338 1.544-1.349 3.072-2.706 4.65-4.003z" fill="#fff"/><g fill="#f4f4f4"><path d="M343.747 338.926l-.128 13.107.128-13.107zm.213-21.922v-.298zm35.413 35.03c-8.644-14.933-20.565-26.283-35.413-35.328 14.848 9.045 25.856 21.077 35.413 35.328z"/><path d="M343.96 316.706v.299c6.818 6.528 12.826 13.815 18.261 21.922h-18.475l-.128 13.107h35.755c-9.557-14.251-20.565-26.283-35.413-35.328zm-27.819 22.22h-75.008v13.107h85.419l.427-43.691c-3.302-1.323-6.869-2.449-10.505-3.533l-.333 34.117zM97.944 352.034c3.123-3.217 6.417-6.178 9.737-9.105-3.337 2.901-6.614 5.888-9.737 9.105z"/><path d="M213.656 338.926H112.331c-1.579 1.297-3.106 2.654-4.651 4.002-3.319 2.935-6.622 5.897-9.737 9.105h126.123V297.59c-3.558.256-6.946.742-10.411 1.126v40.21z"/></g><path d="M136.754 454.51c-.06-.256-.137-.512-.196-.768.068.256.144.504.196.768zm140.68-.759c-.06.247-.137.495-.188.751.06-.256.128-.495.188-.751zm-290.133 0c-.06.247-.137.495-.188.751.06-.256.128-.495.188-.751zm439.586.759c-.06-.256-.137-.512-.196-.768.068.256.145.504.196.768zm10.513-17.143v-25.6h-8.533c-4.693 0-8.533-3.84-8.533-8.533s3.84-8.533 8.533-8.533h8.533v-10.923L393.368 369.1H79c-51.456 0-86.784 13.056-98.304 25.6h4.437c4.693 0 8.533 3.84 8.533 8.533s-3.84 8.533-8.533 8.533H-23.4v25.6c0 4.693-3.84 8.533-8.533 8.533h21.555c10.547-29.764 38.98-51.2 72.311-51.2s61.756 21.436 72.311 51.2h145.519c10.547-29.764 38.98-51.2 72.311-51.2s61.756 21.436 72.311 51.2h21.547c-4.692.001-8.532-3.839-8.532-8.532z" fill="#0091ea"/><g fill="#2979ff"><path d="M-12.887 454.502c-.623 2.773-1.152 5.589-1.468 8.465.316-2.876.82-5.7 1.468-8.465zm2.509-8.602a75.336 75.336 0 0 0-2.321 7.851 81.184 81.184 0 0 1 2.321-7.851z"/><path d="M-31.933 462.967h17.579c.316-2.876.836-5.692 1.468-8.465.06-.256.128-.495.188-.751a75.652 75.652 0 0 1 2.321-7.851h-21.555v17.067zm460.288 0c-.316-2.876-.836-5.683-1.468-8.457a71.023 71.023 0 0 1 1.468 8.457zm-3.977-17.067a81.01 81.01 0 0 1 2.321 7.842 78.114 78.114 0 0 0-2.321-7.842z"/><path d="M424.378 445.9a75.826 75.826 0 0 1 2.321 7.842c.06.256.137.512.196.768.623 2.773 1.152 5.581 1.468 8.457h17.57V445.9h-21.555zm-144.623 0a75.336 75.336 0 0 0-2.321 7.851 81.753 81.753 0 0 1 2.321-7.851zm-2.509 8.602c-.623 2.773-1.152 5.589-1.468 8.465.316-2.876.82-5.7 1.468-8.465zm-139.025 8.465c-.316-2.876-.836-5.683-1.468-8.457a70.622 70.622 0 0 1 1.468 8.457zm-3.976-17.067a81.01 81.01 0 0 1 2.321 7.842 78.377 78.377 0 0 0-2.321-7.842z"/><path d="M136.557 453.742c.06.256.137.512.196.768.623 2.773 1.152 5.581 1.468 8.457h137.557c.316-2.876.836-5.692 1.468-8.465.06-.256.128-.495.188-.751a75.652 75.652 0 0 1 2.321-7.851h-145.51a76.034 76.034 0 0 1 2.312 7.842z"/></g></svg>