<svg xmlns="http://www.w3.org/2000/svg" viewBox="-49 141 512 512"><circle cx="207" cy="397" r="252.062" fill="#e0e4e8"/><path d="M313.338 427.72c-75.618 0-137.846-61.44-137.846-137.846 0-75.618 61.44-137.846 137.846-137.846 75.618 0 137.846 61.44 137.846 137.846.001 76.406-61.439 137.846-137.846 137.846z" fill="#fbbd5e"/><path d="M313.338 435.597c-80.345 0-145.723-65.378-145.723-145.723.788-79.557 66.166-144.935 145.723-144.935 80.345 0 145.723 65.378 145.723 145.723.001 79.556-65.378 144.935-145.723 144.935zm0-274.905c-70.892 0-129.182 58.289-129.182 129.969s58.289 129.182 129.182 129.182 129.969-58.289 129.969-129.182-58.289-129.969-129.969-129.969z" fill="#183651"/><path d="M313.338 396.212C255.049 396.212 207 348.951 207 289.874s48.049-105.551 106.338-105.551 106.338 47.262 106.338 106.338-47.261 105.551-106.338 105.551z" fill="#fff"/><path d="M310.975 341.862v-9.452c-11.028-.788-21.268-5.514-30.72-13.391l9.452-11.028c7.089 6.302 14.178 9.452 21.268 11.028V294.6c-9.452-2.363-16.542-5.514-20.48-8.665-4.726-3.938-6.302-8.665-6.302-16.542 0-7.089 2.363-13.391 7.877-17.329 4.726-4.726 11.815-7.089 19.692-7.089v-6.302h7.877v6.302c9.452.788 18.117 3.938 25.994 9.452l-7.877 11.815c-5.514-3.938-11.028-6.302-18.117-7.089v23.631c9.452 2.363 16.542 5.514 21.268 9.452 4.726 3.938 7.089 9.452 7.089 16.542 0 7.089-2.363 13.391-7.877 17.329-5.514 4.726-11.815 7.089-20.48 7.089v8.665h-8.664zm-8.664-80.345c-2.363 1.575-3.151 3.938-3.151 7.089 0 3.151.788 4.726 2.363 6.302 1.575 1.575 4.726 3.151 9.452 4.726v-21.268c-3.938 0-7.089 1.576-8.664 3.151zm25.994 54.351c2.363-1.575 3.151-3.938 3.151-7.089s-.788-5.514-2.363-7.089c-1.575-1.575-5.514-3.151-10.24-4.726v22.055c3.938-.001 7.089-.788 9.452-3.151zm-351.311 59.864h15.754v7.877h-15.754zm15.754-15.754h-15.754v-15.754h15.754v15.754zm0-31.507h-15.754v-15.754h15.754v15.754zm0-30.72h-15.754v-15.754h15.754v15.754zm0-31.508l-15.754-.788c0-5.514.788-11.815 2.363-17.329l14.966 3.938c-.788 5.514-1.575 9.453-1.575 14.179zm7.089-25.994l-14.178-7.877c3.151-4.726 6.302-10.24 10.24-14.178l11.815 11.028c-3.151 3.15-5.514 7.089-7.877 11.027zm18.117-20.48l-8.665-12.603c4.726-3.151 10.24-6.302 15.754-7.877l5.514 14.966c-4.726.788-8.665 3.151-12.603 5.514zm25.994-9.452l-1.575-15.754c3.151 0 5.514-.788 8.665-.788h7.877v15.754h-7.877c-3.152.788-5.515.788-7.09.788zm139.421 0h-15.754v-15.754h15.754v15.754zm-31.507 0h-15.754v-15.754h15.754v15.754zm-30.72 0h-15.754v-15.754h15.754v15.754zm-31.508 0H73.88v-15.754h15.754v15.754zm109.489-15.754H207v15.754h-7.877zm176.443 432.443h-15.754v-15.754h15.754v15.754zm-31.508 0h-15.754v-15.754h15.754v15.754zm48.837-.788l-3.151-15.754c3.938-.788 8.665-2.363 12.603-4.726l7.877 13.391c-5.513 3.151-11.027 5.514-17.329 7.089zm31.508-18.904l-11.815-10.24c3.151-3.151 5.514-7.089 7.089-11.028l14.966 6.302c-3.151 5.514-6.301 10.24-10.24 14.966zm13.391-33.083l-15.754-.788v-14.966h15.754v15.754zm0-32.296H422.04v-15.754h15.754v15.754zm0-31.507H422.04v-15.754h15.754v15.754zm0-31.508H422.04v-15.754h15.754v15.754zm0-31.508H422.04v-15.754h15.754v15.754zm0-31.507H422.04v-15.754h15.754v15.754zm0-31.508H422.04v-15.754h15.754v15.754z" fill="#183651"/><path d="M307.037 383.609H-15.129c-11.815 0-22.055 9.452-22.055 22.055v214.252c0 11.815 9.452 22.055 22.055 22.055h322.166c11.815 0 22.055-9.452 22.055-22.055V405.665c-.787-12.603-10.24-22.056-22.055-22.056z" fill="#f06151"/><path d="M307.037 649.062H-15.129c-16.542 0-29.932-13.391-29.932-29.932V405.665c0-16.542 13.391-29.932 29.932-29.932h322.166c16.542 0 29.932 13.391 29.932 29.932v214.252c-.787 15.754-13.391 29.145-29.932 29.145zM-15.129 391.486a14.12 14.12 0 0 0-14.178 14.178v214.252a14.12 14.12 0 0 0 14.178 14.178h322.166a14.12 14.12 0 0 0 14.178-14.178V405.665a14.12 14.12 0 0 0-14.178-14.178H-15.129z" fill="#183651"/><path fill="#fff" d="M-5.677 415.117h302.474v194.56H-5.677z"/><path d="M212.514 391.486c-4.726 0-7.877-3.151-7.877-7.877v-33.871c0-5.514-4.726-9.452-9.452-9.452H96.723c-5.514 0-9.452 4.726-9.452 9.452v33.871c0 4.726-3.151 7.877-7.877 7.877s-7.877-3.151-7.877-7.877v-33.871c0-14.178 11.815-25.206 25.206-25.206h97.674c14.178 0 25.206 11.815 25.206 25.206v33.871c.788 3.939-3.151 7.877-7.089 7.877z" fill="#183651"/><path fill="none" d="M328.305 512.003h-365.49"/><path d="M328.305 519.88h-365.49c-4.726 0-7.877-3.151-7.877-7.877s3.151-7.877 7.877-7.877h365.489c4.726 0 7.877 3.151 7.877 7.877s-3.15 7.877-7.876 7.877z" fill="#183651"/><path fill="#fff" d="M107.751 482.858h75.618v58.289h-75.618z"/><path d="M183.369 549.812h-75.618c-4.726 0-7.877-3.151-7.877-7.877v-58.289c0-4.726 3.151-7.877 7.877-7.877h75.618c4.726 0 7.877 3.151 7.877 7.877v58.289c0 3.939-3.151 7.877-7.877 7.877zm-67.741-15.754h59.865v-42.535h-59.865v42.535z" fill="#183651"/></svg>