<?xml version="1.0" encoding="utf-8"?>
<!-- Generator: Adobe Illustrator 22.0.1, SVG Export Plug-In . SVG Version: 6.00 Build 0)  -->
<svg version="1.1" id="Слой_1" xmlns="http://www.w3.org/2000/svg" xmlns:xlink="http://www.w3.org/1999/xlink" x="0px" y="0px"
	 viewBox="0 0 25 25" style="enable-background:new 0 0 25 25;" xml:space="preserve">
<style type="text/css">
	.st0{fill:#A8A8A8;}
</style>
<g>
	<path class="st0" d="M11.3,11c0.3,0,0.5-0.2,0.5-0.5s-0.2-0.5-0.5-0.5s-0.5,0.2-0.5,0.5S11.1,11,11.3,11z"/>
	<path class="st0" d="M12.5,0C5.8,0,0,5.7,0,12.5C0,19.3,5.8,25,12.5,25c5.3,0,10.2-3.6,11.9-8.6c0.1-0.1,0.1-0.2,0.1-0.3
		c0.4-1.2,0.6-2.4,0.6-3.6C25,5.7,19.2,0,12.5,0z M21,20.1h-3.7l-2-3.7l2-3.4h4.3l1.8,3.1C22.9,17.6,22.1,18.9,21,20.1z M17.3,21.1
		H20c-1.2,1.1-2.6,1.9-4.1,2.4L17.3,21.1z M10.5,15.9l-2-3.4l2-3.4h4l2,3.4l-2,3.4H10.5z M7.7,21.1l1.4,2.4C7.6,23,6.2,22.2,5,21.1
		H7.7z M7.7,20.1H4c-1.1-1.2-1.9-2.5-2.4-4L3.4,13h4.3l2,3.4L7.7,20.1z M1,12.5c0-0.8,0.1-1.5,0.2-2.3l1.3,2.3l-1.3,2.3
		C1.1,14,1,13.3,1,12.5z M4,4.9h3.7l2,3.7l-2,3.4H3.4L1.6,8.9C2.1,7.4,2.9,6.1,4,4.9z M7.7,3.9H5C6.2,2.8,7.6,2,9.1,1.5L7.7,3.9z
		 M17.3,3.9l-1.4-2.4C17.4,2,18.8,2.8,20,3.9H17.3z M17.3,4.9H21c1.1,1.2,1.9,2.5,2.4,4L21.6,12h-4.3l-2-3.4L17.3,4.9z M22.4,12.5
		l1.3-2.3c0.2,0.8,0.2,1.5,0.2,2.3c0,0.8-0.1,1.5-0.2,2.3L22.4,12.5z M14.6,1.2l1.9,3.2l-2,3.7h-4l-2-3.7l1.9-3.2
		C11.1,1,11.8,1,12.5,1C13.2,1,13.9,1,14.6,1.2z M10.4,23.8l-1.9-3.2l2-3.7h4l2,3.7l-1.9,3.2C13.9,24,13.2,24,12.5,24
		C11.8,24,11.1,24,10.4,23.8z"/>
	<path class="st0" d="M10.8,12.5l0.2-0.3c0.1-0.2,0.1-0.5-0.2-0.7c-0.2-0.1-0.5-0.1-0.7,0.2l-0.3,0.6c-0.1,0.2-0.1,0.3,0,0.5l1.1,2
		c0.1,0.2,0.4,0.3,0.7,0.2c0.2-0.1,0.3-0.4,0.2-0.7L10.8,12.5z"/>
</g>
</svg>
