<?xml version="1.0" encoding="utf-8"?>
<!-- Generator: Adobe Illustrator 22.0.1, SVG Export Plug-In . SVG Version: 6.00 Build 0)  -->
<svg version="1.1" id="Слой_1" xmlns="http://www.w3.org/2000/svg" xmlns:xlink="http://www.w3.org/1999/xlink" x="0px" y="0px"
	 viewBox="0 0 25 25" style="enable-background:new 0 0 25 25;" xml:space="preserve">
<style type="text/css">
	.st0{fill:#A8A8A8;}
</style>
<g>
	<path class="st0" d="M14.5,4.7c-0.3,0-0.5,0.2-0.5,0.5c0,0.3,0.2,0.5,0.5,0.5c0.3,0,0.5-0.2,0.5-0.5C14.9,4.9,14.7,4.7,14.5,4.7
		L14.5,4.7z M14.5,4.7"/>
	<path class="st0" d="M10.5,4.7c-0.3,0-0.5,0.2-0.5,0.5c0,0.3,0.2,0.5,0.5,0.5c0.3,0,0.5-0.2,0.5-0.5C11,4.9,10.8,4.7,10.5,4.7
		L10.5,4.7z M10.5,4.7"/>
	<path class="st0" d="M10.5,15.2c-0.3,0-0.5,0.2-0.5,0.5c0,0.3,0.2,0.5,0.5,0.5c0.3,0,0.5-0.2,0.5-0.5C11,15.5,10.8,15.2,10.5,15.2
		L10.5,15.2z M10.5,15.2"/>
	<path class="st0" d="M19.8,7.7c1.7-0.4,3-2,3-3.8C22.8,1.8,21,0,18.8,0c-1,0-1.9,0.4-2.6,1c-1.1-0.7-2.4-1-3.7-1S9.9,0.3,8.8,1
		C8,0.4,7.1,0,6.2,0C4,0,2.2,1.8,2.2,3.9c0,1.8,1.3,3.4,3,3.8c0.2,1.6,0.9,3.1,2.1,4.2c-2.1,1.1-3.6,3.8-3.6,6.3
		c0,0.8,0.2,1.7,0.5,2.4c0,0.2,0,0.3,0,0.5C4.2,23.2,6,25,8.1,25c0.8,0,1.6-0.3,2.3-0.8c0.7,0.2,1.4,0.3,2.1,0.3
		c0.7,0,1.4-0.1,2.1-0.3c0.7,0.5,1.5,0.8,2.3,0.8c2.2,0,3.9-1.8,3.9-3.9c0-0.2,0-0.3,0-0.5c0.3-0.8,0.5-1.6,0.5-2.4
		c0-2.5-1.5-5.1-3.6-6.3C18.9,10.8,19.6,9.3,19.8,7.7L19.8,7.7z M19.4,4.7c-0.2-0.6-0.5-1.2-0.9-1.7c0.1,0,0.2-0.1,0.4-0.1
		c0.5,0,1,0.4,1,1C19.8,4.2,19.7,4.5,19.4,4.7L19.4,4.7z M18.8,1c1.6,0,2.9,1.3,2.9,2.9c0,1.3-0.8,2.4-2,2.8c0-0.3-0.1-0.7-0.1-1
		c0.7-0.3,1.1-1,1.1-1.8c0-1.1-0.9-2-2-2c-0.4,0-0.7,0.1-1,0.3c-0.2-0.2-0.5-0.5-0.8-0.7C17.6,1.2,18.2,1,18.8,1L18.8,1z M5.2,6.7
		c-1.1-0.4-2-1.5-2-2.8C3.2,2.3,4.5,1,6.2,1c0.6,0,1.3,0.2,1.8,0.6C7.6,1.8,7.4,2,7.2,2.2C6.9,2.1,6.5,2,6.2,2c-1.1,0-2,0.9-2,2
		c0,0.8,0.4,1.4,1.1,1.8C5.2,6,5.2,6.3,5.2,6.7L5.2,6.7z M5.2,3.9c0-0.5,0.4-1,1-1c0.1,0,0.2,0,0.4,0.1C6.1,3.5,5.8,4.1,5.6,4.7
		C5.3,4.5,5.2,4.2,5.2,3.9L5.2,3.9z M4.7,18.2c0-2.3,1.5-4.8,3.5-5.6c0.1,0.1,0.2,0.2,0.4,0.2c-1.2,1-2,2.5-2.3,4.1
		c-0.6,0.5-1.2,1.2-1.5,2C4.7,18.6,4.7,18.4,4.7,18.2L4.7,18.2z M10,23.3C9.5,23.8,8.8,24,8.1,24c-1.6,0-2.9-1.3-2.9-2.9
		c0-1.6,1.3-3.9,2.9-3.9c1.6,0,2.9,2.3,2.9,3.9C11,22,10.7,22.8,10,23.3L10,23.3z M12.5,23.5c-0.4,0-0.9,0-1.3-0.1
		c0.5-0.7,0.8-1.5,0.8-2.3c0-2.1-1.7-4.9-3.9-4.9c-0.2,0-0.5,0-0.7,0.1c0.4-1.2,1.1-2.3,2.1-3c1,0.4,2,0.6,3,0.6s2.1-0.2,3-0.6
		c1,0.7,1.7,1.8,2.1,3c-0.2-0.1-0.5-0.1-0.7-0.1c-2.2,0-3.9,2.8-3.9,4.9c0,0.4,0.1,0.7,0.2,1.1c0.1,0.4,0.3,0.9,0.6,1.2
		C13.4,23.5,12.9,23.5,12.5,23.5L12.5,23.5z M16.9,24c-0.7,0-1.4-0.2-1.9-0.7c-0.4-0.4-0.8-0.9-0.9-1.4c0,0,0,0,0,0
		C14,21.7,14,21.4,14,21.1c0-1.6,1.4-3.9,2.9-3.9c1.6,0,2.9,2.3,2.9,3.9C19.8,22.7,18.5,24,16.9,24L16.9,24z M20.3,18.2
		c0,0.2,0,0.5,0,0.7c-0.4-0.8-0.9-1.5-1.5-2c-0.3-1.6-1.1-3-2.3-4.1c0.1-0.1,0.2-0.2,0.4-0.2C18.8,13.4,20.3,15.8,20.3,18.2
		L20.3,18.2z M12.5,13c-3.4,0-6.1-2.6-6.3-5.6c0-0.1,0-0.1,0-0.2C6,3.8,8.9,1,12.5,1c2.9,0,5.4,2,6.1,4.5c0.3,1.1,0.2,1.8,0.2,1.9
		C18.6,10.4,15.9,13,12.5,13L12.5,13z M12.5,13"/>
	<path class="st0" d="M14.5,10.1c-0.3,0-0.5,0.2-0.5,0.5c0,0.3-0.2,0.5-0.5,0.5c-0.1,0-0.3-0.1-0.3-0.1C13,10.8,13,10.7,13,10.5v-1
		c0.9-0.2,1.5-0.7,1.5-1.4c0-0.8-0.9-1.5-2-1.5c-1.1,0-2,0.6-2,1.5c0,0.7,0.6,1.3,1.5,1.4v1c0,0.3-0.2,0.5-0.5,0.5
		c-0.1,0-0.3-0.1-0.3-0.1c-0.1-0.1-0.1-0.2-0.1-0.3c0-0.3-0.2-0.5-0.5-0.5c-0.3,0-0.5,0.2-0.5,0.5c0,0.4,0.2,0.8,0.4,1
		c0.3,0.3,0.6,0.4,1,0.4c0.4,0,0.7-0.1,1-0.4c0.3,0.2,0.6,0.4,1,0.4c0.8,0,1.5-0.7,1.5-1.5C14.9,10.3,14.7,10.1,14.5,10.1L14.5,10.1
		z M11.5,8.1c0-0.2,0.4-0.5,1-0.5c0.6,0,1,0.3,1,0.5c0,0.2-0.4,0.5-1,0.5C11.9,8.6,11.5,8.3,11.5,8.1L11.5,8.1z M11.5,8.1"/>
	<path class="st0" d="M16.9,18.2c-0.9,0-2,1.7-2,2.9c0,1.1,0.9,2,2,2c1.1,0,2-0.9,2-2C18.8,19.9,17.8,18.2,16.9,18.2L16.9,18.2z
		 M16.9,22.1c-0.5,0-1-0.4-1-1c0-0.8,0.6-1.7,1-1.9c0.3,0.2,1,1.1,1,1.9C17.9,21.6,17.4,22.1,16.9,22.1L16.9,22.1z M16.9,22.1"/>
	<path class="st0" d="M8.1,18.2c-0.9,0-2,1.7-2,2.9c0,1.1,0.9,2,2,2c1.1,0,2-0.9,2-2C10.1,19.9,9,18.2,8.1,18.2L8.1,18.2z M8.1,22.1
		c-0.5,0-1-0.4-1-1c0-0.9,0.7-1.8,1-1.9c0.3,0.2,1,1.1,1,1.9C9.1,21.6,8.6,22.1,8.1,22.1L8.1,22.1z M8.1,22.1"/>
	<path class="st0" d="M14.5,15.2h-2c-0.3,0-0.5,0.2-0.5,0.5s0.2,0.5,0.5,0.5h2c0.3,0,0.5-0.2,0.5-0.5S14.7,15.2,14.5,15.2L14.5,15.2
		z M14.5,15.2"/>
</g>
</svg>
