<?xml version="1.0" encoding="utf-8"?>
<!-- Generator: Adobe Illustrator 22.0.1, SVG Export Plug-In . SVG Version: 6.00 Build 0)  -->
<svg version="1.1" id="Слой_1" xmlns="http://www.w3.org/2000/svg" xmlns:xlink="http://www.w3.org/1999/xlink" x="0px" y="0px"
	 viewBox="0 0 25 25" style="enable-background:new 0 0 25 25;" xml:space="preserve">
<style type="text/css">
	.st0{fill:#A8A8A8;}
</style>
<g>
	<path class="st0" d="M23,23.1H2c-1.1,0-2-0.9-2-2v-14c0-1.1,0.9-2,2-2H23c1.1,0,2,0.9,2,2v14C24.9,22.3,24.1,23.1,23,23.1z M2,6.3
		C1.4,6.3,1,6.7,1,7.2v14c0,0.5,0.4,0.9,0.9,0.9H23c0.5,0,0.9-0.4,0.9-0.9v-14c0-0.5-0.4-0.9-0.9-0.9H2z"/>
	<path class="st0" d="M16.9,6.3c-0.3,0-0.5-0.2-0.5-0.5V3.5c0-0.4-0.3-0.6-0.6-0.6H9.3c-0.4,0-0.6,0.3-0.6,0.6v2.2
		c0,0.3-0.2,0.5-0.5,0.5c-0.3,0-0.5-0.2-0.5-0.5V3.5c0-0.9,0.8-1.6,1.6-1.6h6.4c0.9,0,1.6,0.8,1.6,1.6v2.2C17.4,6,17.1,6.3,16.9,6.3
		z"/>
	<line class="st0" x1="24.4" y1="14.2" x2="0.5" y2="14.2"/>
	<path class="st0" d="M14.9,16.6H10c-0.3,0-0.5-0.2-0.5-0.5v-3.8c0-0.3,0.2-0.5,0.5-0.5h4.9c0.3,0,0.5,0.2,0.5,0.5v3.8
		C15.5,16.4,15.3,16.6,14.9,16.6z M10.5,15.6h3.9v-2.8h-3.9V15.6z"/>
	<g>
		<path class="st0" d="M9.8,13.7H0.5c-0.3,0-0.5,0.2-0.5,0.5c0,0.3,0.2,0.5,0.5,0.5h9.3V13.7z"/>
		<path class="st0" d="M24.4,13.7H15v1h9.4c0.3,0,0.5-0.2,0.5-0.5C24.9,13.9,24.7,13.7,24.4,13.7z"/>
	</g>
</g>
</svg>
