<?xml version="1.0" encoding="utf-8"?>
<!-- Generator: Adobe Illustrator 22.0.1, SVG Export Plug-In . SVG Version: 6.00 Build 0)  -->
<svg version="1.1" id="Слой_1" xmlns="http://www.w3.org/2000/svg" xmlns:xlink="http://www.w3.org/1999/xlink" x="0px" y="0px"
	 viewBox="0 0 25 25" style="enable-background:new 0 0 25 25;" xml:space="preserve">
<style type="text/css">
	.st0{fill:#A8A8A8;}
</style>
<g id="Page-1" transform="translate(1.000000, 3.000000)">
	<path class="st0" d="M22.5,19.2h-2.2c-0.8,0-1.5-0.7-1.5-1.5v-1.9H4.1v1.9c0,0.8-0.7,1.5-1.5,1.5H0.5c-0.8,0-1.5-0.7-1.5-1.5v-9
		c0-0.6,0.2-1.1,0.6-1.4l1.1-1l-1.1-0.4C-0.7,5.8-0.9,5.6-1,5.3C-1,5-1,4.7-0.9,4.5L-0.7,4c0.2-0.4,0.5-0.7,1-0.7h2.1L3,0.5
		c0.3-1.1,1.3-1.9,2.5-1.9h12c1.2,0,2.2,0.8,2.5,1.9l0.8,2.9h2.1c0.4,0,0.8,0.3,1,0.7l0.2,0.4C24,4.7,24,5,23.9,5.3
		s-0.3,0.5-0.6,0.6l-1.1,0.4l1.1,1C23.8,7.6,24,8.1,24,8.7v9C24,18.5,23.3,19.2,22.5,19.2z M19.6,15.9v1.9c0,0.4,0.3,0.7,0.7,0.7
		h2.2c0.4,0,0.7-0.3,0.7-0.7v-1.9H19.6z M-0.3,15.9v1.9c0,0.4,0.3,0.7,0.7,0.7h2.2c0.4,0,0.7-0.3,0.7-0.7v-1.9H-0.3z M18.9,15.1h4.4
		V8.7c0-0.3-0.1-0.7-0.4-0.9l-2-1.8l2.2-0.8c0.1,0,0.2-0.1,0.2-0.2s0-0.2,0-0.3l-0.2-0.4c-0.1-0.1-0.2-0.2-0.3-0.2h-2.6l-0.9-3.4
		c-0.2-0.8-1-1.4-1.8-1.4h-12c-0.8,0-1.6,0.6-1.8,1.4L2.8,4.1H0.2C0.1,4.1,0,4.2-0.1,4.3l-0.2,0.4c0,0.1,0,0.2,0,0.3
		c0,0.1,0.1,0.2,0.2,0.2L2.1,6l-2,1.8C-0.1,8-0.3,8.4-0.3,8.7v6.4H18.9z M16.4,13.6H6.6l1-4C7.8,9,8.4,8.5,9,8.5h4.9
		c0.7,0,1.3,0.5,1.4,1.1L16.4,13.6z M7.5,12.9h7.9l-0.8-3.1c-0.1-0.3-0.4-0.6-0.7-0.6H9c-0.3,0-0.6,0.2-0.7,0.6L7.5,12.9z M1.9,12.5
		c-0.2,0-0.3-0.1-0.4-0.1c-0.2-0.1-0.3-0.4-0.3-0.6v-0.4c0-0.4,0.3-0.7,0.7-0.7h1.5c0.4,0,0.7,0.3,0.7,0.7c0,0.3-0.2,0.6-0.5,0.7
		l-1.5,0.4C2,12.5,2,12.5,1.9,12.5z M1.9,11.4v0.4l1.5-0.3l0,0L1.9,11.4z M21.1,12.5c-0.1,0-0.1,0-0.2,0l-1.5-0.4
		c-0.3-0.1-0.5-0.4-0.5-0.7c0-0.4,0.3-0.7,0.7-0.7h1.5c0.4,0,0.7,0.3,0.7,0.7v0.4c0,0.2-0.1,0.4-0.3,0.6
		C21.4,12.5,21.2,12.5,21.1,12.5z M19.6,11.4L19.6,11.4l1.5,0.4v-0.4l0,0H19.6z M17.2,10.3c-0.1,0-0.3-0.1-0.4-0.2
		c-0.1-0.1-0.2-0.3-0.2-0.4V9.1c0-0.6,0.5-1.1,1.1-1.2L21,7.5c0.2,0,0.4,0,0.5,0.2c0.2,0.1,0.2,0.3,0.2,0.5v0.7
		c0,0.7-0.5,1.3-1.2,1.3L17.2,10.3L17.2,10.3z M21.1,8.1l-3.2,0.4c-0.2,0-0.5,0.2-0.5,0.5v0.5l3.2-0.1c0.3,0,0.5-0.3,0.5-0.6V8.1z
		 M5.8,10.3L5.8,10.3l-3.3-0.1c-0.7,0-1.2-0.6-1.2-1.3V8.1c0-0.2,0.1-0.4,0.2-0.5S1.8,7.4,2,7.4l3.3,0.4C5.9,7.9,6.4,8.4,6.4,9v0.7
		c0,0.2-0.1,0.3-0.2,0.4C6,10.3,5.9,10.3,5.8,10.3z M1.9,8.1v0.7c0,0.3,0.2,0.6,0.5,0.6l3.2,0.1V9.1c0-0.3-0.2-0.5-0.5-0.5L1.9,8.1z
		 M19.9,5.9H3.1l1.2-5.1C4.4,0.1,5-0.3,5.6-0.3h11.7c0.7,0,1.2,0.4,1.4,1.2l0,0L19.9,5.9z M17.9,5.2h1.2L18.2,1
		c-0.2-0.7-0.6-0.7-0.8-0.7H5.6c-0.1,0-0.5,0-0.8,0.7L3.9,5.2h1.2l0.1-0.3c0.1-0.5,0.6-0.8,1-0.8H9c0.5,0,0.9,0.4,1,0.8l0.1,0.3h2.7
		l0.1-0.3c0.1-0.5,0.6-0.8,1-0.8h2.8c0.5,0,0.9,0.4,1,0.8L17.9,5.2z M13.6,5.2h3.5V5.1c0-0.1-0.2-0.3-0.3-0.3H14
		c-0.1,0-0.3,0.1-0.3,0.3L13.6,5.2z M5.9,5.2h3.5V5.1c0-0.1-0.2-0.3-0.3-0.3H6.2C6.1,4.8,5.9,4.9,5.9,5.2L5.9,5.2z"/>
</g>
</svg>
