<?xml version="1.0" encoding="utf-8"?>
<!-- Generator: Adobe Illustrator 22.0.1, SVG Export Plug-In . SVG Version: 6.00 Build 0)  -->
<svg version="1.1" id="Слой_1" xmlns="http://www.w3.org/2000/svg" xmlns:xlink="http://www.w3.org/1999/xlink" x="0px" y="0px"
	 viewBox="0 0 25 25" style="enable-background:new 0 0 25 25;" xml:space="preserve">
<style type="text/css">
	.st0{fill:#A8A8A8;}
</style>
<g>
	<path class="st0" d="M12.5,2.3c0.1,0,0.3-0.1,0.3-0.1C12.9,2.1,13,1.9,13,1.8s-0.1-0.3-0.1-0.3c-0.1-0.1-0.2-0.1-0.3-0.1
		s-0.3,0.1-0.3,0.1C12.1,1.6,12,1.7,12,1.8c0,0.1,0.1,0.3,0.1,0.3C12.2,2.2,12.4,2.3,12.5,2.3z"/>
	<path class="st0" d="M24.6,11.9c0.3-0.3,0.4-0.8,0.4-1.2c0-1.1-0.9-2.1-2.1-2.1c-0.6,0-1.2,0.3-1.5,0.7l0.8-2.5
		c0.4-1.3,0.2-2.7-0.6-3.7c-0.8-1.1-2-1.7-3.4-1.7h-3.6c-0.3,0-0.5,0.2-0.5,0.5s0.2,0.5,0.5,0.5h3.6c1,0,2,0.5,2.6,1.3
		s0.8,1.9,0.5,2.9l-1.1,3.5c-0.1,0-0.2,0-0.4,0H5.2c-0.1,0-0.2,0-0.4,0l-1-3.6c-0.3-1-0.1-2,0.5-2.9c0.6-0.8,1.6-1.3,2.6-1.3h3.5
		c0.3,0,0.5-0.2,0.5-0.5s-0.2-0.5-0.5-0.5H6.8C5.5,1.3,4.3,1.9,3.5,3s-1,2.4-0.6,3.7l0.8,2.5c-0.5-0.3-1-0.6-1.6-0.6
		c-1.2,0-2.1,0.9-2.1,2c0,0.5,0.2,0.9,0.4,1.2c0.5,1.6,0.7,3.3,0.7,5v3.6l0,0l0,0V23c0,0.1,0.1,0.3,0.1,0.3c0.1,0.1,0.2,0.1,0.3,0.1
		h2c0.3,0,0.5-0.2,0.5-0.5V21h16.8v2.1c0,0.3,0.2,0.5,0.5,0.5h2c0.1,0,0.3-0.1,0.3-0.1c0.1-0.1,0.1-0.2,0.1-0.3v-2.6l0,0l0,0V17
		C23.8,15.2,24.1,13.5,24.6,11.9z M21.9,10.6c0-0.6,0.5-1.1,1.1-1.1s1.1,0.5,1.1,1.1s-0.5,1.1-1.1,1.1c-0.3,0-0.5,0.2-0.5,0.5
		s0.2,0.5,0.5,0.5c0.1,0,0.3,0,0.4,0c-0.3,1.4-0.5,2.8-0.5,4.3v3.2h-1v-3v-3.1v-2V10.6z M19.8,10.9c0.6,0,1.1,0.5,1.1,1.1v2
		c0,0.6-0.5,1.1-1.1,1.1H5.2c-0.6,0-1-0.4-1.1-1h4.5c0.3,0,0.5-0.2,0.5-0.5s-0.2-0.5-0.5-0.5H4.1V12c0-0.6,0.5-1.1,1.1-1.1H19.8z
		 M1,10.6C1,10,1.5,9.5,2.1,9.5s1.1,0.5,1.1,1.1V12v2v3v3h-1v-3.2c0-1.4-0.2-2.9-0.5-4.3c0.1,0,0.3,0,0.4,0c0.3,0,0.5-0.2,0.5-0.5
		s-0.2-0.5-0.5-0.5C1.5,11.7,1,11.2,1,10.6z M2.1,22.7V21h1v1.7H2.1z M4.1,17c0-0.6,0.5-1.1,1.1-1.1h14.6c0.6,0,1.1,0.5,1.1,1.1v3
		H4.1V17z M21.9,22.7V21h1v1.7H21.9z"/>
	<path class="st0" d="M10.4,14c0.1,0,0.3-0.1,0.3-0.1c0.1-0.1,0.1-0.2,0.1-0.3s-0.1-0.3-0.1-0.3c-0.1-0.1-0.2-0.1-0.3-0.1
		s-0.3,0.1-0.3,0.1C10,13.4,10,13.5,10,13.6s0.1,0.3,0.1,0.3C10.1,14,10.3,14,10.4,14z"/>
</g>
</svg>
