<?xml version="1.0" encoding="utf-8"?>
<!-- Generator: Adobe Illustrator 22.0.1, SVG Export Plug-In . SVG Version: 6.00 Build 0)  -->
<svg version="1.1" id="Слой_1" xmlns="http://www.w3.org/2000/svg" xmlns:xlink="http://www.w3.org/1999/xlink" x="0px" y="0px"
	 viewBox="0 0 25 25" style="enable-background:new 0 0 25 25;" xml:space="preserve">
<style type="text/css">
	.st0{fill:#A8A8A8;}
</style>
<g>
	<path class="st0" d="M15.4,21.3c0-0.2-0.2-0.4-0.4-0.4h-0.4v-2.5h2.1v-0.8H1.2c-0.2,0-0.4-0.2-0.4-0.4V2.9c0-0.2,0.2-0.4,0.4-0.4
		h20c0.2,0,0.4,0.2,0.4,0.4v4.2h0.8V2.9c0-0.7-0.6-1.2-1.2-1.2h-20C0.6,1.7,0,2.2,0,2.9v14.2c0,0.7,0.6,1.2,1.2,1.2h6.7v2.5H7.5
		c-0.2,0-0.4,0.2-0.4,0.4v1.3H5.4v0.8h11.7v-0.8h-1.7V21.3z M8.8,18.3h5v2.5h-5V18.3z M7.9,22.5v-0.8h6.7v0.8H7.9z"/>
	<rect x="1.7" y="14.2" class="st0" width="15" height="0.8"/>
	<path class="st0" d="M20.8,6.7V4.2c0-0.5-0.4-0.8-0.8-0.8H2.5C2,3.3,1.7,3.7,1.7,4.2v8.3h0.8V4.2H20v2.5H20.8z"/>
	<path class="st0" d="M5,5.8V5H3.8C3.5,5,3.3,5.2,3.3,5.4v1.3h0.8V5.8H5z"/>
	<path class="st0" d="M23.8,7.9h-5c-0.7,0-1.3,0.6-1.3,1.3V20c0,0.7,0.6,1.3,1.3,1.3h5c0.7,0,1.3-0.6,1.3-1.3V9.2
		C25,8.5,24.4,7.9,23.8,7.9z M18.8,8.8h5c0.2,0,0.4,0.2,0.4,0.4v0.4h-5.8V9.2C18.3,8.9,18.5,8.8,18.8,8.8z M24.2,10.4v7.5h-5.8v-7.5
		H24.2z M23.8,20.4h-5c-0.2,0-0.4-0.2-0.4-0.4v-1.3h5.8V20C24.2,20.2,24,20.4,23.8,20.4z"/>
	<rect x="20.8" y="19.2" class="st0" width="0.8" height="0.8"/>
	<rect x="20.8" y="13.3" class="st0" width="0.8" height="0.8"/>
	<rect x="22.5" y="13.3" class="st0" width="0.8" height="0.8"/>
	<rect x="19.2" y="13.3" class="st0" width="0.8" height="0.8"/>
</g>
</svg>
