<?xml version="1.0" encoding="utf-8"?>
<!-- Generator: Adobe Illustrator 22.0.1, SVG Export Plug-In . SVG Version: 6.00 Build 0)  -->
<svg version="1.1" id="Слой_1" xmlns="http://www.w3.org/2000/svg" xmlns:xlink="http://www.w3.org/1999/xlink" x="0px" y="0px"
	 viewBox="0 0 25 25" style="enable-background:new 0 0 25 25;" xml:space="preserve">
<style type="text/css">
	.st0{fill:#A8A8A8;}
</style>
<path class="st0" d="M22,5.9C22,5.9,22,5.9,22,5.9c0.2,0,0.3,0,0.4-0.1l2.5-2.5C25,3.2,25,3,25,2.8c-0.1-0.2-0.2-0.3-0.4-0.3
	l-1.9-0.2l-0.2-1.9c0-0.2-0.1-0.3-0.3-0.4C22,0,21.8,0,21.7,0.1l-2.5,2.5C19.1,2.8,19,2.9,19.1,3l0.2,2l-0.5,0.5
	c-1.7-1.6-4-2.6-6.6-2.7V1.9c0-0.3-0.2-0.5-0.5-0.5c-0.3,0-0.5,0.2-0.5,0.5v0.9C5.9,3,1.6,7.4,1.4,12.8H0.5C0.2,12.8,0,13,0,13.2
	c0,0.3,0.2,0.5,0.5,0.5h0.9c0.2,5.4,4.6,9.7,9.9,9.9v0.9c0,0.3,0.2,0.5,0.5,0.5c0.3,0,0.5-0.2,0.5-0.5v-0.9c5.4-0.2,9.7-4.6,9.9-9.9
	h0.9c0.3,0,0.5-0.2,0.5-0.5c0-0.3-0.2-0.5-0.5-0.5h-0.9c-0.1-2.5-1.1-4.8-2.7-6.6l0.5-0.5L22,5.9z M21.7,1.5l0.1,1.3
	c0,0.2,0.2,0.4,0.4,0.4l1.3,0.1L21.8,5l-1.6-0.2L20,3.2L21.7,1.5z M21.3,12.8h-0.7c-0.3,0-0.5,0.2-0.5,0.5c0,0.3,0.2,0.5,0.5,0.5
	h0.7c-0.2,4.9-4.1,8.8-9,9V22c0-0.3-0.2-0.5-0.5-0.5c-0.3,0-0.5,0.2-0.5,0.5v0.7c-4.9-0.2-8.8-4.1-9-9H3c0.3,0,0.5-0.2,0.5-0.5
	c0-0.3-0.2-0.5-0.5-0.5H2.3c0.2-4.9,4.1-8.8,9-9v0.7c0,0.3,0.2,0.5,0.5,0.5c0.3,0,0.5-0.2,0.5-0.5V3.7c2.3,0.1,4.3,1,5.9,2.4
	l-1.4,1.4c-1.3-1.2-3.1-1.9-5-1.9c-4.1,0-7.5,3.4-7.5,7.5c0,4.1,3.4,7.5,7.5,7.5c4.1,0,7.5-3.4,7.5-7.5c0-1.9-0.7-3.6-1.9-5l1.4-1.4
	C20.2,8.4,21.1,10.5,21.3,12.8L21.3,12.8z M11.4,13.6c0.1,0.1,0.2,0.1,0.3,0.1c0.1,0,0.2,0,0.3-0.1l2.5-2.5c0.5,0.6,0.8,1.4,0.8,2.2
	c0,2-1.6,3.6-3.6,3.6c-2,0-3.6-1.6-3.6-3.6c0-2,1.6-3.6,3.6-3.6c0.8,0,1.6,0.3,2.2,0.8l-2.5,2.5C11.3,13.1,11.3,13.4,11.4,13.6
	L11.4,13.6z M14.7,9.7c-0.8-0.6-1.8-1-2.9-1c-2.5,0-4.6,2-4.6,4.6c0,2.5,2,4.6,4.6,4.6c2.5,0,4.6-2,4.6-4.6c0-1.1-0.4-2.1-1-2.9
	l1.4-1.4c1,1.2,1.6,2.7,1.6,4.3c0,3.6-2.9,6.6-6.6,6.6c-3.6,0-6.6-2.9-6.6-6.6c0-3.6,2.9-6.6,6.6-6.6c1.6,0,3.1,0.6,4.3,1.6
	L14.7,9.7z M14.7,9.7"/>
</svg>
