<?xml version="1.0" encoding="utf-8"?>
<!-- Generator: Adobe Illustrator 22.0.1, SVG Export Plug-In . SVG Version: 6.00 Build 0)  -->
<svg version="1.1" id="Слой_1" xmlns="http://www.w3.org/2000/svg" xmlns:xlink="http://www.w3.org/1999/xlink" x="0px" y="0px"
	 viewBox="0 0 25 25" style="enable-background:new 0 0 25 25;" xml:space="preserve">
<style type="text/css">
	.st0{fill:#A8A8A8;}
</style>
<g>
	<path class="st0" d="M24.9,9.5l-0.6-0.6V3.7c0-2.1-1.7-3.7-3.7-3.7c-0.8,0-1.6,0.3-2.3,0.8C15.5-0.6,12-0.1,9.7,2.2l0,0
		c-2.5,2.5-2.8,6.2-1.1,9.1L5.9,14H4.7c-0.3,0-0.5,0.2-0.5,0.5v0.9H3.3c-0.3,0-0.5,0.2-0.5,0.5v0.9H1.9c-0.3,0-0.5,0.2-0.5,0.5v0.9
		H0.5c-0.1,0-0.3,0.1-0.3,0.1l0,0C0.1,18.5,0,18.6,0,18.7v3.2c0,0.3,0.2,0.5,0.5,0.5h3.2c0.1,0,0.3-0.1,0.3-0.1l5.4-5.4
		c0.2-0.2,0.2-0.5,0-0.7s-0.5-0.2-0.7,0l-5.2,5.2H1v-2.2h0.9c0.3,0,0.5-0.2,0.5-0.5v-0.9h0.9c0.3,0,0.5-0.2,0.5-0.5v-0.9h0.9
		c0.3,0,0.5-0.2,0.5-0.5V15h0.9c0.1,0,0.3-0.1,0.3-0.1L9.2,12c0.2,0.2,0.3,0.4,0.5,0.6c1.3,1.3,3.1,2.1,4.9,2.2V23
		c0,1.1,0.9,2.1,2.1,2.1h6.2c1.1,0,2.1-0.9,2.1-2.1V9.9C25,9.7,24.9,9.6,24.9,9.5z M20.5,1c1.5,0,2.8,1.2,2.8,2.8V8l-0.9-1l0,0
		c-0.1-1.8-0.8-3.5-2.2-4.8c-0.3-0.3-0.7-0.6-1-0.9C19.6,1.1,20,1,20.5,1z M10.4,2.9L10.4,2.9C11.6,1.6,13.3,1,15,1
		c0.9,0,1.7,0.2,2.5,0.5c-0.3,0.4-0.6,0.9-0.7,1.5c-0.4,0.1-0.8,0.3-1.1,0.6c-0.8,0.8-0.8,2.2,0,3.1l0,0c0.4,0.4,1,0.6,1.5,0.6
		c0.6,0,1.1-0.2,1.5-0.6s0.6-1,0.6-1.5S19.2,4,18.8,3.6c-0.3-0.3-0.6-0.5-1-0.6c0.1-0.4,0.3-0.8,0.6-1.1c0.4,0.3,0.8,0.6,1.1,0.9
		c1.2,1.2,1.9,2.8,1.9,4.5s-0.7,3.3-1.9,4.5c-1.3,1.3-2.9,1.9-4.5,1.9s-3.3-0.6-4.5-1.9C7.9,9.4,7.9,5.4,10.4,2.9z M17.2,5.6
		c0.3,0,0.5-0.2,0.5-0.5V4c0.1,0.1,0.2,0.1,0.4,0.2c0.2,0.2,0.3,0.5,0.3,0.8s-0.1,0.7-0.3,1c-0.5,0.5-1.2,0.5-1.7,0l0,0
		c-0.5-0.5-0.5-1.2,0-1.7c0.1-0.1,0.2-0.2,0.3-0.2v1.1C16.8,5.4,17,5.6,17.2,5.6z M24,22.9c0,0.6-0.5,1.1-1.1,1.1h-6.2
		c-0.6,0-1.1-0.5-1.1-1.1v-8.2c1.7-0.2,3.3-0.9,4.6-2.1c1.2-1.2,1.9-2.7,2.1-4.3L24,10C24,10,24,22.9,24,22.9z"/>
	<path class="st0" d="M12.5,4.2C12.3,4,12,4,11.8,4.2C10,6,10,8.8,11.8,10.6c0.1,0.1,0.2,0.1,0.3,0.1s0.2,0,0.3-0.1
		c0.2-0.2,0.2-0.5,0-0.7c-1.4-1.4-1.4-3.6,0-5C12.7,4.7,12.7,4.4,12.5,4.2z"/>
	<path class="st0" d="M14,10.8L14,10.8c-0.3-0.1-0.5,0.1-0.6,0.3c-0.1,0.3,0.1,0.5,0.3,0.6h0.1c0.2,0,0.4-0.1,0.5-0.4
		C14.4,11.1,14.3,10.9,14,10.8z"/>
	<path class="st0" d="M21.9,21.4h-4.2c-0.3,0-0.5,0.2-0.5,0.5s0.2,0.5,0.5,0.5h4.2c0.3,0,0.5-0.2,0.5-0.5
		C22.4,21.6,22.2,21.4,21.9,21.4z"/>
	<path class="st0" d="M10.4,14.7c-0.1,0-0.3,0.1-0.3,0.1C10,14.9,10,15,10,15.1s0.1,0.3,0.1,0.3c0.1,0.1,0.2,0.1,0.3,0.1
		s0.3-0.1,0.3-0.1c0.1-0.1,0.1-0.2,0.1-0.3s-0.1-0.3-0.1-0.3C10.6,14.8,10.5,14.7,10.4,14.7z"/>
</g>
</svg>
