<?xml version="1.0" encoding="utf-8"?>
<!-- Generator: Adobe Illustrator 22.0.1, SVG Export Plug-In . SVG Version: 6.00 Build 0)  -->
<svg version="1.1" id="Слой_1" xmlns="http://www.w3.org/2000/svg" xmlns:xlink="http://www.w3.org/1999/xlink" x="0px" y="0px"
	 viewBox="0 0 25 25" style="enable-background:new 0 0 25 25;" xml:space="preserve">
<style type="text/css">
	.st0{fill:#A8A8A8;}
</style>
<path class="st0" d="M24.3,8.2L13,4.3V3.6c0-0.3-0.2-0.5-0.5-0.5c-0.6,0-1-0.5-1-1c0-0.6,0.5-1,1-1c0.6,0,1,0.5,1,1h1
	c0-0.9-0.6-1.8-1.6-2c-1.1-0.3-2.2,0.4-2.5,1.5c-0.3,1.1,0.4,2.2,1.5,2.5v0.2L0.7,8.2C0.3,8.4,0,8.8,0,9.3c0,0.6,0.5,1.1,1.1,1.1
	h2.4l-0.2,5c0,0,0,0,0,0l-0.1,2.5c0,0,0,0,0,0l-0.1,3.5c0,0.1,0,0.2,0.1,0.3l2.1,3.1C5.4,24.9,5.6,25,5.7,25c0.2,0,0.3-0.1,0.4-0.2
	l1.4-2.2c0,0,0,0,0,0l0.6-0.9c0.1-0.1,0.1-0.2,0.1-0.3l0-1.1c0,0,0,0,0,0l-0.4-9.8h0.9L8.3,21.3c0,0.1,0,0.2,0.1,0.3l2.1,3.1
	c0.1,0.1,0.3,0.2,0.4,0.2c0.2,0,0.3-0.1,0.4-0.2l2.1-3.1c0.1-0.1,0.1-0.2,0.1-0.3l-0.5-10.9h4.1v0.5c0,0,0,0,0,0
	c-0.3,0.1-0.7,0.2-0.9,0.5c-0.3,0.3-0.6,0.7-0.6,1.1c0,0.1,0,0.1,0,0.2l0.9,2.7c0.1,0.3,0.3,0.5,0.6,0.6v1.2
	c-0.3,0.1-0.5,0.3-0.6,0.6l-0.9,2.7c0,0.1,0,0.1,0,0.2c0,0.4,0.3,0.8,0.6,1.1c0.3,0.2,0.6,0.4,0.9,0.5c0,0,0,0,0,0v2.1
	c0,0.3,0.2,0.5,0.5,0.5h2.1c0.3,0,0.5-0.2,0.5-0.5v-2.1c0,0,0,0,0,0c0.3-0.1,0.7-0.2,0.9-0.5c0.3-0.3,0.6-0.7,0.6-1.1
	c0-0.1,0-0.1,0-0.2l-0.9-2.7c-0.1-0.3-0.3-0.5-0.6-0.6v-1.2c0.3-0.1,0.5-0.3,0.6-0.6l0.9-2.7c0-0.1,0-0.1,0-0.2
	c0-0.4-0.3-0.8-0.6-1.1C21,11.2,20.7,11,20.3,11c0,0,0,0,0,0v-0.5h3.5c0.5,0,0.9-0.3,1.1-0.7C25.1,9.1,24.9,8.4,24.3,8.2L24.3,8.2z
	 M4.3,17.7l0-0.9l2,2.5l0.9,1.2l0,0.8l-0.1,0.2L4.3,17.7z M5.3,16.4l-0.9-1.1l0.2-5.9h2.1l0.4,9.3L5.3,16.4z M5.7,23.5l-1.6-2.3
	l0.1-1.9l1,1.2l1.4,1.7L5.7,23.5z M10.9,23.5l-1.6-2.3L9.9,9.4H12l0.4,9.4h-0.9v1h1l0,0.5h-1v1h0.9L10.9,23.5z M19.3,10.4h-1v-1h1
	V10.4z M19.3,17.2h-1v-1h1V17.2z M19.3,24h-1v-1h1V24z M20.8,20.8c-0.2,0.3-0.5,0.5-0.9,0.5l-1.1-0.2c-0.1,0-0.1,0-0.2,0l-1.1,0.2
	c-0.4,0-0.7-0.2-0.9-0.5l0.9-2.6l0,0c0,0,0,0,0,0l2.3,0L20.8,20.8z M20.8,12.5l-0.9,2.6l0,0c0,0,0,0,0,0l0,0l-0.1,0c0,0,0,0,0,0
	h-0.2l-2,0l-0.9-2.6c0.2-0.3,0.5-0.5,0.9-0.5l1.1,0.2c0.1,0,0.1,0,0.2,0l1.1-0.2C20.3,12,20.6,12.2,20.8,12.5L20.8,12.5z M23.8,9.4
	h-3.5V8.9c0-0.3-0.2-0.5-0.5-0.5h-2.1c-0.3,0-0.5,0.2-0.5,0.5v0.5H13l0-0.5c0-0.3-0.2-0.5-0.5-0.5H9.4c-0.3,0-0.5,0.2-0.5,0.5l0,0.5
	h-1l0-0.5c0-0.3-0.2-0.5-0.5-0.5H4.2c-0.3,0-0.5,0.2-0.5,0.5l0,0.5H1.1C1.1,9.4,1,9.3,1,9.3c0,0,0-0.1,0-0.1l11.4-3.9l11.4,3.9
	c0,0,0.1,0.1,0.1,0.1C24,9.3,23.9,9.4,23.8,9.4L23.8,9.4z M23.8,9.4"/>
</svg>
