<?xml version="1.0" encoding="utf-8"?>
<!-- Generator: Adobe Illustrator 22.0.1, SVG Export Plug-In . SVG Version: 6.00 Build 0)  -->
<svg version="1.1" id="Слой_1" xmlns="http://www.w3.org/2000/svg" xmlns:xlink="http://www.w3.org/1999/xlink" x="0px" y="0px"
	 viewBox="0 0 25 25" style="enable-background:new 0 0 25 25;" xml:space="preserve">
<style type="text/css">
	.st0{fill:#A8A8A8;}
	.st1{fill:none;}
</style>
<g>
	<path class="st0" d="M18.5,14.2c-1.7-2-3.8-3.1-6-3.1c-2.2,0-4.3,1.1-6,3.1C5,16,4.1,18.3,4.1,20.4c0,1,0.3,1.7,0.9,2.2
		c0.6,0.5,1.4,0.7,2.2,0.7c0.9,0,1.9-0.2,2.9-0.4c0.9-0.2,1.7-0.3,2.3-0.3c0.5,0,1.3,0.1,2.1,0.3c1.9,0.4,4.1,0.8,5.3-0.3
		c0.6-0.5,0.9-1.2,0.9-2.2C20.9,18.3,20,16,18.5,14.2L18.5,14.2z M19,21.5c-0.7,0.6-2.6,0.3-4.1,0c-0.9-0.2-1.7-0.3-2.4-0.3
		c-0.8,0-1.7,0.2-2.6,0.3c-1.5,0.3-3.3,0.6-4,0c-0.1-0.1-0.4-0.3-0.4-1.1c0-1.7,0.8-3.7,2.1-5.2c1.4-1.7,3.1-2.6,4.9-2.6
		c1.7,0,3.5,0.9,4.9,2.6c1.3,1.5,2.1,3.5,2.1,5.2C19.4,21.1,19.1,21.4,19,21.5L19,21.5z M19,21.5"/>
	<rect x="0" y="1.7" class="st1" width="25" height="21.6"/>
	<path class="st0" d="M18.6,3.2c-0.6-0.9-1.5-1.4-2.4-1.4c-0.9,0-1.8,0.5-2.4,1.4c-0.6,0.8-0.9,1.9-0.9,3.1c0,1.2,0.3,2.2,0.9,3.1
		c0.6,0.9,1.5,1.4,2.4,1.4c0.9,0,1.8-0.5,2.4-1.4c0.6-0.8,0.9-1.9,0.9-3.1C19.5,5.1,19.2,4,18.6,3.2L18.6,3.2z M17.4,8.5
		c-0.2,0.3-0.6,0.8-1.2,0.8c-0.6,0-1-0.5-1.2-0.8c-0.4-0.6-0.6-1.4-0.6-2.3S14.6,4.6,15,4c0.2-0.3,0.6-0.8,1.2-0.8
		c0.6,0,1,0.5,1.2,0.8c0.4,0.6,0.6,1.4,0.6,2.3C18.1,7.1,17.8,8,17.4,8.5L17.4,8.5z M17.4,8.5"/>
	<path class="st0" d="M11.2,3.2c-0.6-0.9-1.5-1.4-2.4-1.4c-0.9,0-1.8,0.5-2.4,1.4C5.8,4,5.5,5.1,5.5,6.3c0,1.2,0.3,2.2,0.9,3.1
		c0.6,0.9,1.5,1.4,2.4,1.4c0.9,0,1.8-0.5,2.4-1.4C11.7,8.5,12,7.4,12,6.3C12,5.1,11.7,4,11.2,3.2L11.2,3.2z M10,8.5
		C9.8,8.8,9.3,9.3,8.8,9.3c-0.6,0-1-0.5-1.2-0.8C7.1,8,6.9,7.1,6.9,6.3S7.1,4.6,7.5,4c0.2-0.3,0.6-0.8,1.2-0.8c0.6,0,1,0.5,1.2,0.8
		c0.4,0.6,0.6,1.4,0.6,2.3S10.4,8,10,8.5L10,8.5z M10,8.5"/>
	<path class="st0" d="M24.8,10.3c-0.2-0.8-0.8-1.5-1.5-1.7c-0.6-0.2-1.2-0.2-1.8,0.1C20.7,9,20,9.9,19.6,10.9
		c-0.3,0.8-0.3,1.7-0.1,2.5c0.2,0.8,0.8,1.5,1.5,1.7c0.2,0.1,0.5,0.1,0.8,0.1c0.4,0,0.7-0.1,1.1-0.2c0.8-0.4,1.5-1.2,1.9-2.2
		C25,11.9,25.1,11,24.8,10.3L24.8,10.3z M23.3,12.3c-0.2,0.6-0.6,1.1-1.1,1.4c-0.2,0.1-0.4,0.2-0.7,0.1c-0.6-0.2-0.9-1.3-0.5-2.3
		c0.2-0.6,0.6-1.1,1.1-1.4c0.1-0.1,0.3-0.1,0.4-0.1c0.1,0,0.2,0,0.3,0C23.5,10.2,23.7,11.3,23.3,12.3L23.3,12.3z M23.3,12.3"/>
	<path class="st0" d="M5.3,10.9C5,9.8,4.3,9,3.5,8.7C2.9,8.4,2.2,8.3,1.6,8.5c-0.7,0.3-1.2,0.9-1.5,1.7C-0.1,11,0,11.9,0.2,12.7v0
		c0.4,1,1,1.8,1.9,2.2c0.3,0.2,0.7,0.2,1.1,0.2c0.3,0,0.5,0,0.8-0.1c0.7-0.3,1.2-0.9,1.5-1.7C5.7,12.6,5.6,11.7,5.3,10.9L5.3,10.9z
		 M3.4,13.7c-0.3,0.1-0.5,0-0.7-0.1c-0.5-0.2-0.9-0.7-1.1-1.4c-0.4-1-0.1-2.1,0.5-2.3c0.3-0.1,0.5,0,0.7,0.1
		c0.5,0.2,0.9,0.7,1.1,1.4C4.3,12.4,4.1,13.5,3.4,13.7L3.4,13.7z M3.4,13.7"/>
</g>
</svg>
