<?xml version="1.0" encoding="utf-8"?>
<!-- Generator: Adobe Illustrator 22.0.1, SVG Export Plug-In . SVG Version: 6.00 Build 0)  -->
<svg version="1.1" id="Capa_1" xmlns="http://www.w3.org/2000/svg" xmlns:xlink="http://www.w3.org/1999/xlink" x="0px" y="0px"
	 viewBox="0 0 9.7 10" style="enable-background:new 0 0 9.7 10;" xml:space="preserve">
<style type="text/css">
	.st0{fill:#A8A8A8;}
</style>
<path class="st0" d="M9.5,9.1L7.1,6.6C7.7,5.9,8.1,5,8.1,4c0-2.2-1.8-4-4-4S0,1.8,0,4s1.8,4,4,4c0.8,0,1.6-0.3,2.3-0.7l2.4,2.5
	C8.9,9.9,9,10,9.1,10c0.1,0,0.3-0.1,0.4-0.1C9.7,9.7,9.7,9.3,9.5,9.1z M4,1.1c1.6,0,3,1.3,3,3S5.7,7,4,7s-3-1.3-3-3S2.4,1.1,4,1.1z"
	/>
</svg>
